G04 #@! TF.FileFunction,Soldermask,Top*
%FSLAX46Y46*%
G04 Gerber Fmt 4.6, Leading zero omitted, Abs format (unit mm)*
G04 Created by KiCad (PCBNEW 4.0.1-stable) date 2017/01/22 22:06:15*
%MOMM*%
G01*
G04 APERTURE LIST*
%ADD10C,0.100000*%
%ADD11O,1.924000X3.448000*%
%ADD12R,1.449020X1.479500*%
%ADD13C,1.800000*%
%ADD14O,3.448000X1.924000*%
G04 APERTURE END LIST*
D10*
D11*
X123190000Y-137160000D03*
X125730000Y-137160000D03*
X128270000Y-137160000D03*
X130810000Y-137160000D03*
X133350000Y-137160000D03*
X135890000Y-137160000D03*
X138430000Y-137160000D03*
X140970000Y-137160000D03*
X143510000Y-137160000D03*
X146050000Y-137160000D03*
X148590000Y-137160000D03*
X151130000Y-137160000D03*
X153670000Y-137160000D03*
X156210000Y-137160000D03*
X158750000Y-137160000D03*
X161290000Y-137160000D03*
X163830000Y-137160000D03*
X166370000Y-137160000D03*
X168910000Y-137160000D03*
X171450000Y-137160000D03*
X123189800Y-114616000D03*
X125729800Y-114616000D03*
X128269800Y-114616000D03*
X130809800Y-114616000D03*
X133349800Y-114616000D03*
X135889800Y-114616000D03*
X138429800Y-114616000D03*
X140969800Y-114616000D03*
X143509800Y-114616000D03*
X146049800Y-114616000D03*
X148589800Y-114616000D03*
X151129800Y-114616000D03*
X153669800Y-114616000D03*
X156209800Y-114616000D03*
X158749800Y-114616000D03*
X161289800Y-114616000D03*
X163829800Y-114616000D03*
X166369800Y-114616000D03*
X168909800Y-114616000D03*
X171449800Y-114616000D03*
D12*
X164873760Y-126750000D03*
X163126240Y-126750000D03*
D13*
X142383238Y-129274660D02*
X142524660Y-129133238D01*
X144179289Y-131070711D02*
X144320711Y-130929289D01*
X145975340Y-132866762D02*
X146116762Y-132725340D01*
D10*
G36*
X139846770Y-130892934D02*
X140892934Y-129846770D01*
X141917546Y-130871382D01*
X140871382Y-131917546D01*
X139846770Y-130892934D01*
X139846770Y-130892934D01*
G37*
G36*
X141082454Y-132128618D02*
X142128618Y-131082454D01*
X143153230Y-132107066D01*
X142107066Y-133153230D01*
X141082454Y-132128618D01*
X141082454Y-132128618D01*
G37*
G36*
X145403230Y-134357066D02*
X144357066Y-135403230D01*
X143332454Y-134378618D01*
X144378618Y-133332454D01*
X145403230Y-134357066D01*
X145403230Y-134357066D01*
G37*
G36*
X144167546Y-133121382D02*
X143121382Y-134167546D01*
X142096770Y-133142934D01*
X143142934Y-132096770D01*
X144167546Y-133121382D01*
X144167546Y-133121382D01*
G37*
D12*
X129076240Y-121000000D03*
X130823760Y-121000000D03*
D10*
G36*
X142857066Y-123096770D02*
X143903230Y-124142934D01*
X142878618Y-125167546D01*
X141832454Y-124121382D01*
X142857066Y-123096770D01*
X142857066Y-123096770D01*
G37*
G36*
X141621382Y-124332454D02*
X142667546Y-125378618D01*
X141642934Y-126403230D01*
X140596770Y-125357066D01*
X141621382Y-124332454D01*
X141621382Y-124332454D01*
G37*
G36*
X147096770Y-133642934D02*
X148142934Y-132596770D01*
X149167546Y-133621382D01*
X148121382Y-134667546D01*
X147096770Y-133642934D01*
X147096770Y-133642934D01*
G37*
G36*
X148332454Y-134878618D02*
X149378618Y-133832454D01*
X150403230Y-134857066D01*
X149357066Y-135903230D01*
X148332454Y-134878618D01*
X148332454Y-134878618D01*
G37*
D14*
X135550000Y-129240000D03*
X135550000Y-126700000D03*
X135550000Y-124160000D03*
D11*
X167180000Y-123500000D03*
X169720000Y-123500000D03*
X167180000Y-130600000D03*
X169720000Y-130600000D03*
D12*
X163126240Y-128750000D03*
X164873760Y-128750000D03*
X134626240Y-132500000D03*
X136373760Y-132500000D03*
D11*
X127789400Y-129851200D03*
X127789400Y-123348800D03*
X132310600Y-129851200D03*
X132310600Y-123348800D03*
D10*
G36*
X144358311Y-128462221D02*
X143898692Y-128002602D01*
X145100773Y-126800521D01*
X145560392Y-127260140D01*
X144358311Y-128462221D01*
X144358311Y-128462221D01*
G37*
G36*
X144711864Y-128815774D02*
X144252245Y-128356155D01*
X145454326Y-127154074D01*
X145913945Y-127613693D01*
X144711864Y-128815774D01*
X144711864Y-128815774D01*
G37*
G36*
X145065418Y-129169328D02*
X144605799Y-128709709D01*
X145807880Y-127507628D01*
X146267499Y-127967247D01*
X145065418Y-129169328D01*
X145065418Y-129169328D01*
G37*
G36*
X145418971Y-129522881D02*
X144959352Y-129063262D01*
X146161433Y-127861181D01*
X146621052Y-128320800D01*
X145418971Y-129522881D01*
X145418971Y-129522881D01*
G37*
G36*
X145772524Y-129876434D02*
X145312905Y-129416815D01*
X146514986Y-128214734D01*
X146974605Y-128674353D01*
X145772524Y-129876434D01*
X145772524Y-129876434D01*
G37*
G36*
X146126078Y-130229988D02*
X145666459Y-129770369D01*
X146868540Y-128568288D01*
X147328159Y-129027907D01*
X146126078Y-130229988D01*
X146126078Y-130229988D01*
G37*
G36*
X146479631Y-130583541D02*
X146020012Y-130123922D01*
X147222093Y-128921841D01*
X147681712Y-129381460D01*
X146479631Y-130583541D01*
X146479631Y-130583541D01*
G37*
G36*
X146833185Y-130937095D02*
X146373566Y-130477476D01*
X147575647Y-129275395D01*
X148035266Y-129735014D01*
X146833185Y-130937095D01*
X146833185Y-130937095D01*
G37*
G36*
X147186738Y-131290648D02*
X146727119Y-130831029D01*
X147929200Y-129628948D01*
X148388819Y-130088567D01*
X147186738Y-131290648D01*
X147186738Y-131290648D01*
G37*
G36*
X147540291Y-131644201D02*
X147080672Y-131184582D01*
X148282753Y-129982501D01*
X148742372Y-130442120D01*
X147540291Y-131644201D01*
X147540291Y-131644201D01*
G37*
G36*
X147893845Y-131997755D02*
X147434226Y-131538136D01*
X148636307Y-130336055D01*
X149095926Y-130795674D01*
X147893845Y-131997755D01*
X147893845Y-131997755D01*
G37*
G36*
X148247398Y-132351308D02*
X147787779Y-131891689D01*
X148989860Y-130689608D01*
X149449479Y-131149227D01*
X148247398Y-132351308D01*
X148247398Y-132351308D01*
G37*
G36*
X151712221Y-131891689D02*
X151252602Y-132351308D01*
X150050521Y-131149227D01*
X150510140Y-130689608D01*
X151712221Y-131891689D01*
X151712221Y-131891689D01*
G37*
G36*
X152065774Y-131538136D02*
X151606155Y-131997755D01*
X150404074Y-130795674D01*
X150863693Y-130336055D01*
X152065774Y-131538136D01*
X152065774Y-131538136D01*
G37*
G36*
X152419328Y-131184582D02*
X151959709Y-131644201D01*
X150757628Y-130442120D01*
X151217247Y-129982501D01*
X152419328Y-131184582D01*
X152419328Y-131184582D01*
G37*
G36*
X152772881Y-130831029D02*
X152313262Y-131290648D01*
X151111181Y-130088567D01*
X151570800Y-129628948D01*
X152772881Y-130831029D01*
X152772881Y-130831029D01*
G37*
G36*
X153126434Y-130477476D02*
X152666815Y-130937095D01*
X151464734Y-129735014D01*
X151924353Y-129275395D01*
X153126434Y-130477476D01*
X153126434Y-130477476D01*
G37*
G36*
X153479988Y-130123922D02*
X153020369Y-130583541D01*
X151818288Y-129381460D01*
X152277907Y-128921841D01*
X153479988Y-130123922D01*
X153479988Y-130123922D01*
G37*
G36*
X153833541Y-129770369D02*
X153373922Y-130229988D01*
X152171841Y-129027907D01*
X152631460Y-128568288D01*
X153833541Y-129770369D01*
X153833541Y-129770369D01*
G37*
G36*
X154187095Y-129416815D02*
X153727476Y-129876434D01*
X152525395Y-128674353D01*
X152985014Y-128214734D01*
X154187095Y-129416815D01*
X154187095Y-129416815D01*
G37*
G36*
X154540648Y-129063262D02*
X154081029Y-129522881D01*
X152878948Y-128320800D01*
X153338567Y-127861181D01*
X154540648Y-129063262D01*
X154540648Y-129063262D01*
G37*
G36*
X154894201Y-128709709D02*
X154434582Y-129169328D01*
X153232501Y-127967247D01*
X153692120Y-127507628D01*
X154894201Y-128709709D01*
X154894201Y-128709709D01*
G37*
G36*
X155247755Y-128356155D02*
X154788136Y-128815774D01*
X153586055Y-127613693D01*
X154045674Y-127154074D01*
X155247755Y-128356155D01*
X155247755Y-128356155D01*
G37*
G36*
X155601308Y-128002602D02*
X155141689Y-128462221D01*
X153939608Y-127260140D01*
X154399227Y-126800521D01*
X155601308Y-128002602D01*
X155601308Y-128002602D01*
G37*
G36*
X154399227Y-126199479D02*
X153939608Y-125739860D01*
X155141689Y-124537779D01*
X155601308Y-124997398D01*
X154399227Y-126199479D01*
X154399227Y-126199479D01*
G37*
G36*
X154045674Y-125845926D02*
X153586055Y-125386307D01*
X154788136Y-124184226D01*
X155247755Y-124643845D01*
X154045674Y-125845926D01*
X154045674Y-125845926D01*
G37*
G36*
X153692120Y-125492372D02*
X153232501Y-125032753D01*
X154434582Y-123830672D01*
X154894201Y-124290291D01*
X153692120Y-125492372D01*
X153692120Y-125492372D01*
G37*
G36*
X153338567Y-125138819D02*
X152878948Y-124679200D01*
X154081029Y-123477119D01*
X154540648Y-123936738D01*
X153338567Y-125138819D01*
X153338567Y-125138819D01*
G37*
G36*
X152985014Y-124785266D02*
X152525395Y-124325647D01*
X153727476Y-123123566D01*
X154187095Y-123583185D01*
X152985014Y-124785266D01*
X152985014Y-124785266D01*
G37*
G36*
X152631460Y-124431712D02*
X152171841Y-123972093D01*
X153373922Y-122770012D01*
X153833541Y-123229631D01*
X152631460Y-124431712D01*
X152631460Y-124431712D01*
G37*
G36*
X152277907Y-124078159D02*
X151818288Y-123618540D01*
X153020369Y-122416459D01*
X153479988Y-122876078D01*
X152277907Y-124078159D01*
X152277907Y-124078159D01*
G37*
G36*
X151924353Y-123724605D02*
X151464734Y-123264986D01*
X152666815Y-122062905D01*
X153126434Y-122522524D01*
X151924353Y-123724605D01*
X151924353Y-123724605D01*
G37*
G36*
X151570800Y-123371052D02*
X151111181Y-122911433D01*
X152313262Y-121709352D01*
X152772881Y-122168971D01*
X151570800Y-123371052D01*
X151570800Y-123371052D01*
G37*
G36*
X151217247Y-123017499D02*
X150757628Y-122557880D01*
X151959709Y-121355799D01*
X152419328Y-121815418D01*
X151217247Y-123017499D01*
X151217247Y-123017499D01*
G37*
G36*
X150863693Y-122663945D02*
X150404074Y-122204326D01*
X151606155Y-121002245D01*
X152065774Y-121461864D01*
X150863693Y-122663945D01*
X150863693Y-122663945D01*
G37*
G36*
X150510140Y-122310392D02*
X150050521Y-121850773D01*
X151252602Y-120648692D01*
X151712221Y-121108311D01*
X150510140Y-122310392D01*
X150510140Y-122310392D01*
G37*
G36*
X149449479Y-121850773D02*
X148989860Y-122310392D01*
X147787779Y-121108311D01*
X148247398Y-120648692D01*
X149449479Y-121850773D01*
X149449479Y-121850773D01*
G37*
G36*
X149095926Y-122204326D02*
X148636307Y-122663945D01*
X147434226Y-121461864D01*
X147893845Y-121002245D01*
X149095926Y-122204326D01*
X149095926Y-122204326D01*
G37*
G36*
X148742372Y-122557880D02*
X148282753Y-123017499D01*
X147080672Y-121815418D01*
X147540291Y-121355799D01*
X148742372Y-122557880D01*
X148742372Y-122557880D01*
G37*
G36*
X148388819Y-122911433D02*
X147929200Y-123371052D01*
X146727119Y-122168971D01*
X147186738Y-121709352D01*
X148388819Y-122911433D01*
X148388819Y-122911433D01*
G37*
G36*
X148035266Y-123264986D02*
X147575647Y-123724605D01*
X146373566Y-122522524D01*
X146833185Y-122062905D01*
X148035266Y-123264986D01*
X148035266Y-123264986D01*
G37*
G36*
X147681712Y-123618540D02*
X147222093Y-124078159D01*
X146020012Y-122876078D01*
X146479631Y-122416459D01*
X147681712Y-123618540D01*
X147681712Y-123618540D01*
G37*
G36*
X147328159Y-123972093D02*
X146868540Y-124431712D01*
X145666459Y-123229631D01*
X146126078Y-122770012D01*
X147328159Y-123972093D01*
X147328159Y-123972093D01*
G37*
G36*
X146974605Y-124325647D02*
X146514986Y-124785266D01*
X145312905Y-123583185D01*
X145772524Y-123123566D01*
X146974605Y-124325647D01*
X146974605Y-124325647D01*
G37*
G36*
X146621052Y-124679200D02*
X146161433Y-125138819D01*
X144959352Y-123936738D01*
X145418971Y-123477119D01*
X146621052Y-124679200D01*
X146621052Y-124679200D01*
G37*
G36*
X146267499Y-125032753D02*
X145807880Y-125492372D01*
X144605799Y-124290291D01*
X145065418Y-123830672D01*
X146267499Y-125032753D01*
X146267499Y-125032753D01*
G37*
G36*
X145913945Y-125386307D02*
X145454326Y-125845926D01*
X144252245Y-124643845D01*
X144711864Y-124184226D01*
X145913945Y-125386307D01*
X145913945Y-125386307D01*
G37*
G36*
X145560392Y-125739860D02*
X145100773Y-126199479D01*
X143898692Y-124997398D01*
X144358311Y-124537779D01*
X145560392Y-125739860D01*
X145560392Y-125739860D01*
G37*
D14*
X124550000Y-121220000D03*
X124550000Y-123760000D03*
X124550000Y-126300000D03*
X124550000Y-128840000D03*
X124550000Y-131380000D03*
D10*
G36*
X151846770Y-119892934D02*
X152892934Y-118846770D01*
X153917546Y-119871382D01*
X152871382Y-120917546D01*
X151846770Y-119892934D01*
X151846770Y-119892934D01*
G37*
G36*
X153082454Y-121128618D02*
X154128618Y-120082454D01*
X155153230Y-121107066D01*
X154107066Y-122153230D01*
X153082454Y-121128618D01*
X153082454Y-121128618D01*
G37*
G36*
X156392934Y-129903230D02*
X155346770Y-128857066D01*
X156371382Y-127832454D01*
X157417546Y-128878618D01*
X156392934Y-129903230D01*
X156392934Y-129903230D01*
G37*
G36*
X157628618Y-128667546D02*
X156582454Y-127621382D01*
X157607066Y-126596770D01*
X158653230Y-127642934D01*
X157628618Y-128667546D01*
X157628618Y-128667546D01*
G37*
M02*
