G04 #@! TF.FileFunction,Soldermask,Bot*
%FSLAX46Y46*%
G04 Gerber Fmt 4.6, Leading zero omitted, Abs format (unit mm)*
G04 Created by KiCad (PCBNEW 4.0.1-stable) date 2017/01/22 22:06:15*
%MOMM*%
G01*
G04 APERTURE LIST*
%ADD10C,0.100000*%
%ADD11O,1.924000X3.448000*%
%ADD12C,1.800000*%
%ADD13O,3.448000X1.924000*%
G04 APERTURE END LIST*
D10*
D11*
X123190000Y-137160000D03*
X125730000Y-137160000D03*
X128270000Y-137160000D03*
X130810000Y-137160000D03*
X133350000Y-137160000D03*
X135890000Y-137160000D03*
X138430000Y-137160000D03*
X140970000Y-137160000D03*
X143510000Y-137160000D03*
X146050000Y-137160000D03*
X148590000Y-137160000D03*
X151130000Y-137160000D03*
X153670000Y-137160000D03*
X156210000Y-137160000D03*
X158750000Y-137160000D03*
X161290000Y-137160000D03*
X163830000Y-137160000D03*
X166370000Y-137160000D03*
X168910000Y-137160000D03*
X171450000Y-137160000D03*
X123189800Y-114616000D03*
X125729800Y-114616000D03*
X128269800Y-114616000D03*
X130809800Y-114616000D03*
X133349800Y-114616000D03*
X135889800Y-114616000D03*
X138429800Y-114616000D03*
X140969800Y-114616000D03*
X143509800Y-114616000D03*
X146049800Y-114616000D03*
X148589800Y-114616000D03*
X151129800Y-114616000D03*
X153669800Y-114616000D03*
X156209800Y-114616000D03*
X158749800Y-114616000D03*
X161289800Y-114616000D03*
X163829800Y-114616000D03*
X166369800Y-114616000D03*
X168909800Y-114616000D03*
X171449800Y-114616000D03*
D12*
X142383238Y-129274660D02*
X142524660Y-129133238D01*
X144179289Y-131070711D02*
X144320711Y-130929289D01*
X145975340Y-132866762D02*
X146116762Y-132725340D01*
D13*
X135550000Y-129240000D03*
X135550000Y-126700000D03*
X135550000Y-124160000D03*
D11*
X167180000Y-123500000D03*
X169720000Y-123500000D03*
X167180000Y-130600000D03*
X169720000Y-130600000D03*
X127789400Y-129851200D03*
X127789400Y-123348800D03*
X132310600Y-129851200D03*
X132310600Y-123348800D03*
D13*
X124550000Y-121220000D03*
X124550000Y-123760000D03*
X124550000Y-126300000D03*
X124550000Y-128840000D03*
X124550000Y-131380000D03*
M02*
