M48
;DRILL file {KiCad 4.0.1-stable} date 2017/01/22 22:06:17
;FORMAT={-:-/ absolute / metric / decimal}
FMAT,2
METRIC,TZ
T1C0.400
T2C1.016
%
G90
G05
M71
T1
X123.91Y-118.47
X124.84Y-133.66
X127.5Y-132.75
X130.26Y-126.69
X138.Y-128.5
X139.25Y-132.85
X139.92Y-118.31
X140.448Y-128.881
X140.8Y-123.65
X141.05Y-134.1
X142.21Y-118.09
X143.277Y-125.932
X143.93Y-127.398
X144.84Y-117.28
X146.688Y-127.844
X147.3Y-135.5
X147.8Y-124.5
X148.1Y-126.85
X148.345Y-128.667
X148.76Y-132.688
X148.96Y-130.106
X149.35Y-120.3
X150.167Y-122.907
X150.191Y-123.893
X150.25Y-132.05
X151.15Y-128.2
X152.Y-124.55
X152.291Y-121.1
X152.5Y-134.6
X153.188Y-127.096
X155.087Y-120.51
X156.Y-126.
X158.5Y-128.5
X158.5Y-131.5
X160.95Y-122.05
X163.9Y-124.4
X167.75Y-120.5
X170.85Y-127.9
X171.05Y-121.6
X171.5Y-133.5
T2
X123.19Y-114.616
X123.19Y-137.16
X124.55Y-121.22
X124.55Y-123.76
X124.55Y-126.3
X124.55Y-128.84
X124.55Y-131.38
X125.73Y-114.616
X125.73Y-137.16
X127.789Y-123.349
X127.789Y-129.851
X128.27Y-114.616
X128.27Y-137.16
X130.81Y-114.616
X130.81Y-137.16
X132.311Y-123.349
X132.311Y-129.851
X133.35Y-114.616
X133.35Y-137.16
X135.55Y-124.16
X135.55Y-126.7
X135.55Y-129.24
X135.89Y-114.616
X135.89Y-137.16
X138.43Y-114.616
X138.43Y-137.16
X140.97Y-114.616
X140.97Y-137.16
X142.454Y-129.204
X143.51Y-114.616
X143.51Y-137.16
X144.25Y-131.
X146.046Y-132.796
X146.05Y-114.616
X146.05Y-137.16
X148.59Y-114.616
X148.59Y-137.16
X151.13Y-114.616
X151.13Y-137.16
X153.67Y-114.616
X153.67Y-137.16
X156.21Y-114.616
X156.21Y-137.16
X158.75Y-114.616
X158.75Y-137.16
X161.29Y-114.616
X161.29Y-137.16
X163.83Y-114.616
X163.83Y-137.16
X166.37Y-114.616
X166.37Y-137.16
X167.18Y-123.5
X167.18Y-130.6
X168.91Y-114.616
X168.91Y-137.16
X169.72Y-123.5
X169.72Y-130.6
X171.45Y-114.616
X171.45Y-137.16
T0
M30
