M48
;DRILL file {KiCad 4.0.1-stable} date 2017/01/03 21:47:51
;FORMAT={-:-/ absolute / inch / decimal}
FMAT,2
INCH,TZ
T1C0.016
T2C0.040
%
G90
G05
M72
T1
X4.8783Y-4.6642
X4.915Y-5.2622
X5.0197Y-5.2264
X5.1283Y-4.9878
X5.4331Y-5.0591
X5.4823Y-5.2303
X5.5087Y-4.6579
X5.5294Y-5.0741
X5.5433Y-4.8681
X5.5531Y-5.2795
X5.5988Y-4.6492
X5.6408Y-4.958
X5.6665Y-5.0157
X5.7024Y-4.6173
X5.7751Y-5.0332
X5.7992Y-5.3346
X5.8189Y-4.9016
X5.8307Y-4.9941
X5.8404Y-5.0656
X5.8567Y-5.2239
X5.8646Y-5.1223
X5.8799Y-4.7362
X5.9121Y-4.8389
X5.913Y-4.8777
X5.9154Y-5.1988
X5.9508Y-5.0472
X5.9843Y-4.9035
X5.9957Y-4.7677
X6.0039Y-5.2992
X6.031Y-5.0038
X6.1058Y-4.7445
X6.1417Y-4.9606
X6.2402Y-5.0591
X6.2402Y-5.1772
X6.3366Y-4.8051
X6.4528Y-4.8976
X6.6043Y-4.7441
X6.7264Y-5.0354
X6.7343Y-4.7874
X6.752Y-5.2559
T2
X4.85Y-4.5124
X4.85Y-5.4
X4.9035Y-4.7724
X4.9035Y-4.8724
X4.9035Y-4.9724
X4.9035Y-5.0724
X4.9035Y-5.1724
X4.95Y-4.5124
X4.95Y-5.4
X5.0311Y-4.8563
X5.0311Y-5.1123
X5.05Y-4.5124
X5.05Y-5.4
X5.15Y-4.5124
X5.15Y-5.4
X5.2091Y-4.8563
X5.2091Y-5.1123
X5.25Y-4.5124
X5.25Y-5.4
X5.3366Y-4.8882
X5.3366Y-4.9882
X5.3366Y-5.0882
X5.35Y-4.5124
X5.35Y-5.4
X5.45Y-4.5124
X5.45Y-5.4
X5.55Y-4.5124
X5.55Y-5.4
X5.6084Y-5.0868
X5.65Y-4.5124
X5.65Y-5.4
X5.6791Y-5.1575
X5.7498Y-5.2282
X5.75Y-4.5124
X5.75Y-5.4
X5.85Y-4.5124
X5.85Y-5.4
X5.95Y-4.5124
X5.95Y-5.4
X6.05Y-4.5124
X6.05Y-5.4
X6.15Y-4.5124
X6.15Y-5.4
X6.25Y-4.5124
X6.25Y-5.4
X6.35Y-4.5124
X6.35Y-5.4
X6.45Y-4.5124
X6.45Y-5.4
X6.55Y-4.5124
X6.55Y-5.4
X6.5819Y-4.8622
X6.5819Y-5.1417
X6.65Y-4.5124
X6.65Y-5.4
X6.6819Y-4.8622
X6.6819Y-5.1417
X6.75Y-4.5124
X6.75Y-5.4
T0
M30
