G04 #@! TF.FileFunction,Copper,L1,Top,Signal*
%FSLAX46Y46*%
G04 Gerber Fmt 4.6, Leading zero omitted, Abs format (unit mm)*
G04 Created by KiCad (PCBNEW 4.0.1-stable) date 2017/01/03 21:47:49*
%MOMM*%
G01*
G04 APERTURE LIST*
%ADD10C,0.100000*%
%ADD11O,1.524000X3.048000*%
%ADD12R,1.049020X1.079500*%
%ADD13C,1.400000*%
%ADD14O,3.048000X1.524000*%
%ADD15C,0.800000*%
%ADD16C,0.300000*%
%ADD17C,0.249800*%
%ADD18C,0.254000*%
G04 APERTURE END LIST*
D10*
D11*
X123190000Y-137160000D03*
X125730000Y-137160000D03*
X128270000Y-137160000D03*
X130810000Y-137160000D03*
X133350000Y-137160000D03*
X135890000Y-137160000D03*
X138430000Y-137160000D03*
X140970000Y-137160000D03*
X143510000Y-137160000D03*
X146050000Y-137160000D03*
X148590000Y-137160000D03*
X151130000Y-137160000D03*
X153670000Y-137160000D03*
X156210000Y-137160000D03*
X158750000Y-137160000D03*
X161290000Y-137160000D03*
X163830000Y-137160000D03*
X166370000Y-137160000D03*
X168910000Y-137160000D03*
X171450000Y-137160000D03*
X123189800Y-114616000D03*
X125729800Y-114616000D03*
X128269800Y-114616000D03*
X130809800Y-114616000D03*
X133349800Y-114616000D03*
X135889800Y-114616000D03*
X138429800Y-114616000D03*
X140969800Y-114616000D03*
X143509800Y-114616000D03*
X146049800Y-114616000D03*
X148589800Y-114616000D03*
X151129800Y-114616000D03*
X153669800Y-114616000D03*
X156209800Y-114616000D03*
X158749800Y-114616000D03*
X161289800Y-114616000D03*
X163829800Y-114616000D03*
X166369800Y-114616000D03*
X168909800Y-114616000D03*
X171449800Y-114616000D03*
D12*
X164873760Y-126750000D03*
X163126240Y-126750000D03*
D13*
X142383238Y-129274660D02*
X142524660Y-129133238D01*
X144179289Y-131070711D02*
X144320711Y-130929289D01*
X145975340Y-132866762D02*
X146116762Y-132725340D01*
D10*
G36*
X140129613Y-130892934D02*
X140892934Y-130129613D01*
X141634703Y-130871382D01*
X140871382Y-131634703D01*
X140129613Y-130892934D01*
X140129613Y-130892934D01*
G37*
G36*
X141365297Y-132128618D02*
X142128618Y-131365297D01*
X142870387Y-132107066D01*
X142107066Y-132870387D01*
X141365297Y-132128618D01*
X141365297Y-132128618D01*
G37*
G36*
X145120387Y-134357066D02*
X144357066Y-135120387D01*
X143615297Y-134378618D01*
X144378618Y-133615297D01*
X145120387Y-134357066D01*
X145120387Y-134357066D01*
G37*
G36*
X143884703Y-133121382D02*
X143121382Y-133884703D01*
X142379613Y-133142934D01*
X143142934Y-132379613D01*
X143884703Y-133121382D01*
X143884703Y-133121382D01*
G37*
D12*
X129076240Y-121000000D03*
X130823760Y-121000000D03*
D10*
G36*
X142857066Y-123379613D02*
X143620387Y-124142934D01*
X142878618Y-124884703D01*
X142115297Y-124121382D01*
X142857066Y-123379613D01*
X142857066Y-123379613D01*
G37*
G36*
X141621382Y-124615297D02*
X142384703Y-125378618D01*
X141642934Y-126120387D01*
X140879613Y-125357066D01*
X141621382Y-124615297D01*
X141621382Y-124615297D01*
G37*
G36*
X147379613Y-133642934D02*
X148142934Y-132879613D01*
X148884703Y-133621382D01*
X148121382Y-134384703D01*
X147379613Y-133642934D01*
X147379613Y-133642934D01*
G37*
G36*
X148615297Y-134878618D02*
X149378618Y-134115297D01*
X150120387Y-134857066D01*
X149357066Y-135620387D01*
X148615297Y-134878618D01*
X148615297Y-134878618D01*
G37*
D14*
X135550000Y-129240000D03*
X135550000Y-126700000D03*
X135550000Y-124160000D03*
D11*
X167180000Y-123500000D03*
X169720000Y-123500000D03*
X167180000Y-130600000D03*
X169720000Y-130600000D03*
D12*
X163126240Y-128750000D03*
X164873760Y-128750000D03*
X134626240Y-132500000D03*
X136373760Y-132500000D03*
D11*
X127789400Y-129851200D03*
X127789400Y-123348800D03*
X132310600Y-129851200D03*
X132310600Y-123348800D03*
D10*
G36*
X144358311Y-128179379D02*
X144181534Y-128002602D01*
X145100773Y-127083363D01*
X145277550Y-127260140D01*
X144358311Y-128179379D01*
X144358311Y-128179379D01*
G37*
G36*
X144711864Y-128532932D02*
X144535087Y-128356155D01*
X145454326Y-127436916D01*
X145631103Y-127613693D01*
X144711864Y-128532932D01*
X144711864Y-128532932D01*
G37*
G36*
X145065418Y-128886486D02*
X144888641Y-128709709D01*
X145807880Y-127790470D01*
X145984657Y-127967247D01*
X145065418Y-128886486D01*
X145065418Y-128886486D01*
G37*
G36*
X145418971Y-129240039D02*
X145242194Y-129063262D01*
X146161433Y-128144023D01*
X146338210Y-128320800D01*
X145418971Y-129240039D01*
X145418971Y-129240039D01*
G37*
G36*
X145772524Y-129593592D02*
X145595747Y-129416815D01*
X146514986Y-128497576D01*
X146691763Y-128674353D01*
X145772524Y-129593592D01*
X145772524Y-129593592D01*
G37*
G36*
X146126078Y-129947146D02*
X145949301Y-129770369D01*
X146868540Y-128851130D01*
X147045317Y-129027907D01*
X146126078Y-129947146D01*
X146126078Y-129947146D01*
G37*
G36*
X146479631Y-130300699D02*
X146302854Y-130123922D01*
X147222093Y-129204683D01*
X147398870Y-129381460D01*
X146479631Y-130300699D01*
X146479631Y-130300699D01*
G37*
G36*
X146833185Y-130654253D02*
X146656408Y-130477476D01*
X147575647Y-129558237D01*
X147752424Y-129735014D01*
X146833185Y-130654253D01*
X146833185Y-130654253D01*
G37*
G36*
X147186738Y-131007806D02*
X147009961Y-130831029D01*
X147929200Y-129911790D01*
X148105977Y-130088567D01*
X147186738Y-131007806D01*
X147186738Y-131007806D01*
G37*
G36*
X147540291Y-131361359D02*
X147363514Y-131184582D01*
X148282753Y-130265343D01*
X148459530Y-130442120D01*
X147540291Y-131361359D01*
X147540291Y-131361359D01*
G37*
G36*
X147893845Y-131714913D02*
X147717068Y-131538136D01*
X148636307Y-130618897D01*
X148813084Y-130795674D01*
X147893845Y-131714913D01*
X147893845Y-131714913D01*
G37*
G36*
X148247398Y-132068466D02*
X148070621Y-131891689D01*
X148989860Y-130972450D01*
X149166637Y-131149227D01*
X148247398Y-132068466D01*
X148247398Y-132068466D01*
G37*
G36*
X151429379Y-131891689D02*
X151252602Y-132068466D01*
X150333363Y-131149227D01*
X150510140Y-130972450D01*
X151429379Y-131891689D01*
X151429379Y-131891689D01*
G37*
G36*
X151782932Y-131538136D02*
X151606155Y-131714913D01*
X150686916Y-130795674D01*
X150863693Y-130618897D01*
X151782932Y-131538136D01*
X151782932Y-131538136D01*
G37*
G36*
X152136486Y-131184582D02*
X151959709Y-131361359D01*
X151040470Y-130442120D01*
X151217247Y-130265343D01*
X152136486Y-131184582D01*
X152136486Y-131184582D01*
G37*
G36*
X152490039Y-130831029D02*
X152313262Y-131007806D01*
X151394023Y-130088567D01*
X151570800Y-129911790D01*
X152490039Y-130831029D01*
X152490039Y-130831029D01*
G37*
G36*
X152843592Y-130477476D02*
X152666815Y-130654253D01*
X151747576Y-129735014D01*
X151924353Y-129558237D01*
X152843592Y-130477476D01*
X152843592Y-130477476D01*
G37*
G36*
X153197146Y-130123922D02*
X153020369Y-130300699D01*
X152101130Y-129381460D01*
X152277907Y-129204683D01*
X153197146Y-130123922D01*
X153197146Y-130123922D01*
G37*
G36*
X153550699Y-129770369D02*
X153373922Y-129947146D01*
X152454683Y-129027907D01*
X152631460Y-128851130D01*
X153550699Y-129770369D01*
X153550699Y-129770369D01*
G37*
G36*
X153904253Y-129416815D02*
X153727476Y-129593592D01*
X152808237Y-128674353D01*
X152985014Y-128497576D01*
X153904253Y-129416815D01*
X153904253Y-129416815D01*
G37*
G36*
X154257806Y-129063262D02*
X154081029Y-129240039D01*
X153161790Y-128320800D01*
X153338567Y-128144023D01*
X154257806Y-129063262D01*
X154257806Y-129063262D01*
G37*
G36*
X154611359Y-128709709D02*
X154434582Y-128886486D01*
X153515343Y-127967247D01*
X153692120Y-127790470D01*
X154611359Y-128709709D01*
X154611359Y-128709709D01*
G37*
G36*
X154964913Y-128356155D02*
X154788136Y-128532932D01*
X153868897Y-127613693D01*
X154045674Y-127436916D01*
X154964913Y-128356155D01*
X154964913Y-128356155D01*
G37*
G36*
X155318466Y-128002602D02*
X155141689Y-128179379D01*
X154222450Y-127260140D01*
X154399227Y-127083363D01*
X155318466Y-128002602D01*
X155318466Y-128002602D01*
G37*
G36*
X154399227Y-125916637D02*
X154222450Y-125739860D01*
X155141689Y-124820621D01*
X155318466Y-124997398D01*
X154399227Y-125916637D01*
X154399227Y-125916637D01*
G37*
G36*
X154045674Y-125563084D02*
X153868897Y-125386307D01*
X154788136Y-124467068D01*
X154964913Y-124643845D01*
X154045674Y-125563084D01*
X154045674Y-125563084D01*
G37*
G36*
X153692120Y-125209530D02*
X153515343Y-125032753D01*
X154434582Y-124113514D01*
X154611359Y-124290291D01*
X153692120Y-125209530D01*
X153692120Y-125209530D01*
G37*
G36*
X153338567Y-124855977D02*
X153161790Y-124679200D01*
X154081029Y-123759961D01*
X154257806Y-123936738D01*
X153338567Y-124855977D01*
X153338567Y-124855977D01*
G37*
G36*
X152985014Y-124502424D02*
X152808237Y-124325647D01*
X153727476Y-123406408D01*
X153904253Y-123583185D01*
X152985014Y-124502424D01*
X152985014Y-124502424D01*
G37*
G36*
X152631460Y-124148870D02*
X152454683Y-123972093D01*
X153373922Y-123052854D01*
X153550699Y-123229631D01*
X152631460Y-124148870D01*
X152631460Y-124148870D01*
G37*
G36*
X152277907Y-123795317D02*
X152101130Y-123618540D01*
X153020369Y-122699301D01*
X153197146Y-122876078D01*
X152277907Y-123795317D01*
X152277907Y-123795317D01*
G37*
G36*
X151924353Y-123441763D02*
X151747576Y-123264986D01*
X152666815Y-122345747D01*
X152843592Y-122522524D01*
X151924353Y-123441763D01*
X151924353Y-123441763D01*
G37*
G36*
X151570800Y-123088210D02*
X151394023Y-122911433D01*
X152313262Y-121992194D01*
X152490039Y-122168971D01*
X151570800Y-123088210D01*
X151570800Y-123088210D01*
G37*
G36*
X151217247Y-122734657D02*
X151040470Y-122557880D01*
X151959709Y-121638641D01*
X152136486Y-121815418D01*
X151217247Y-122734657D01*
X151217247Y-122734657D01*
G37*
G36*
X150863693Y-122381103D02*
X150686916Y-122204326D01*
X151606155Y-121285087D01*
X151782932Y-121461864D01*
X150863693Y-122381103D01*
X150863693Y-122381103D01*
G37*
G36*
X150510140Y-122027550D02*
X150333363Y-121850773D01*
X151252602Y-120931534D01*
X151429379Y-121108311D01*
X150510140Y-122027550D01*
X150510140Y-122027550D01*
G37*
G36*
X149166637Y-121850773D02*
X148989860Y-122027550D01*
X148070621Y-121108311D01*
X148247398Y-120931534D01*
X149166637Y-121850773D01*
X149166637Y-121850773D01*
G37*
G36*
X148813084Y-122204326D02*
X148636307Y-122381103D01*
X147717068Y-121461864D01*
X147893845Y-121285087D01*
X148813084Y-122204326D01*
X148813084Y-122204326D01*
G37*
G36*
X148459530Y-122557880D02*
X148282753Y-122734657D01*
X147363514Y-121815418D01*
X147540291Y-121638641D01*
X148459530Y-122557880D01*
X148459530Y-122557880D01*
G37*
G36*
X148105977Y-122911433D02*
X147929200Y-123088210D01*
X147009961Y-122168971D01*
X147186738Y-121992194D01*
X148105977Y-122911433D01*
X148105977Y-122911433D01*
G37*
G36*
X147752424Y-123264986D02*
X147575647Y-123441763D01*
X146656408Y-122522524D01*
X146833185Y-122345747D01*
X147752424Y-123264986D01*
X147752424Y-123264986D01*
G37*
G36*
X147398870Y-123618540D02*
X147222093Y-123795317D01*
X146302854Y-122876078D01*
X146479631Y-122699301D01*
X147398870Y-123618540D01*
X147398870Y-123618540D01*
G37*
G36*
X147045317Y-123972093D02*
X146868540Y-124148870D01*
X145949301Y-123229631D01*
X146126078Y-123052854D01*
X147045317Y-123972093D01*
X147045317Y-123972093D01*
G37*
G36*
X146691763Y-124325647D02*
X146514986Y-124502424D01*
X145595747Y-123583185D01*
X145772524Y-123406408D01*
X146691763Y-124325647D01*
X146691763Y-124325647D01*
G37*
G36*
X146338210Y-124679200D02*
X146161433Y-124855977D01*
X145242194Y-123936738D01*
X145418971Y-123759961D01*
X146338210Y-124679200D01*
X146338210Y-124679200D01*
G37*
G36*
X145984657Y-125032753D02*
X145807880Y-125209530D01*
X144888641Y-124290291D01*
X145065418Y-124113514D01*
X145984657Y-125032753D01*
X145984657Y-125032753D01*
G37*
G36*
X145631103Y-125386307D02*
X145454326Y-125563084D01*
X144535087Y-124643845D01*
X144711864Y-124467068D01*
X145631103Y-125386307D01*
X145631103Y-125386307D01*
G37*
G36*
X145277550Y-125739860D02*
X145100773Y-125916637D01*
X144181534Y-124997398D01*
X144358311Y-124820621D01*
X145277550Y-125739860D01*
X145277550Y-125739860D01*
G37*
D14*
X124550000Y-121220000D03*
X124550000Y-123760000D03*
X124550000Y-126300000D03*
X124550000Y-128840000D03*
X124550000Y-131380000D03*
D10*
G36*
X152129613Y-119892934D02*
X152892934Y-119129613D01*
X153634703Y-119871382D01*
X152871382Y-120634703D01*
X152129613Y-119892934D01*
X152129613Y-119892934D01*
G37*
G36*
X153365297Y-121128618D02*
X154128618Y-120365297D01*
X154870387Y-121107066D01*
X154107066Y-121870387D01*
X153365297Y-121128618D01*
X153365297Y-121128618D01*
G37*
G36*
X156392934Y-129620387D02*
X155629613Y-128857066D01*
X156371382Y-128115297D01*
X157134703Y-128878618D01*
X156392934Y-129620387D01*
X156392934Y-129620387D01*
G37*
G36*
X157628618Y-128384703D02*
X156865297Y-127621382D01*
X157607066Y-126879613D01*
X158370387Y-127642934D01*
X157628618Y-128384703D01*
X157628618Y-128384703D01*
G37*
D15*
X142210000Y-118090000D03*
X139920000Y-118310000D03*
X144840000Y-117280000D03*
X123910000Y-118470000D03*
X130260000Y-126690000D03*
X127500000Y-132750000D03*
X124840000Y-133660000D03*
X138000000Y-128500000D03*
X156000000Y-126000000D03*
X171500000Y-133500000D03*
X158500000Y-131500000D03*
X158500000Y-128500000D03*
X150250000Y-132050000D03*
X152500000Y-134600000D03*
X151150000Y-128200000D03*
X147300000Y-135500000D03*
X140800000Y-123650000D03*
X139250000Y-132850000D03*
X141050000Y-134100000D03*
X148100000Y-126850000D03*
X149350000Y-120300000D03*
X167750000Y-120500000D03*
X170850000Y-127900000D03*
X171050000Y-121600000D03*
X160950000Y-122050000D03*
X163900000Y-124400000D03*
X155087200Y-120510400D03*
X150166700Y-122907200D03*
X143277300Y-125932000D03*
X153188200Y-127095600D03*
X150191000Y-123892600D03*
X147800000Y-124500000D03*
X143929600Y-127397800D03*
X140447800Y-128881400D03*
X146688300Y-127844000D03*
X148959900Y-130106200D03*
X148759900Y-132688300D03*
X148345500Y-128666600D03*
X152290900Y-121100400D03*
X152000000Y-124550000D03*
D16*
X140882100Y-130881900D02*
X140882000Y-130882000D01*
X146144000Y-129045800D02*
X146144000Y-129046000D01*
X146143800Y-129045600D02*
X146144000Y-129045800D01*
X142752000Y-129502000D02*
X142453900Y-129203900D01*
X143050000Y-129800000D02*
X142752000Y-129502000D01*
X145400000Y-129800000D02*
X143050000Y-129800000D01*
X146144000Y-129056000D02*
X145400000Y-129800000D01*
X146144000Y-129046000D02*
X146144000Y-129056000D01*
X142454000Y-129310000D02*
X140882100Y-130881900D01*
X142454000Y-129204000D02*
X142454000Y-129310000D01*
X142752000Y-129502000D02*
X142454000Y-129204000D01*
X140882100Y-130881900D02*
X140882100Y-130882100D01*
X140882100Y-132881200D02*
X138430000Y-135333300D01*
X140882100Y-132052000D02*
X140882100Y-132881200D01*
X141467100Y-131467000D02*
X140882100Y-132052000D01*
X140882100Y-130882100D02*
X141467100Y-131467000D01*
X138430000Y-137160000D02*
X138430000Y-135333300D01*
X130823760Y-121000000D02*
X130823760Y-119993760D01*
X125200000Y-119760000D02*
X123910000Y-118470000D01*
X130590000Y-119760000D02*
X125200000Y-119760000D01*
X130823760Y-119993760D02*
X130590000Y-119760000D01*
X132310600Y-126500000D02*
X130450000Y-126500000D01*
X130450000Y-126500000D02*
X130260000Y-126690000D01*
X167180000Y-130600000D02*
X166723760Y-130600000D01*
X166723760Y-130600000D02*
X164873760Y-128750000D01*
X132310600Y-123348800D02*
X132310600Y-126500000D01*
X132310600Y-126500000D02*
X132310600Y-129851200D01*
X135550000Y-124160000D02*
X133121800Y-124160000D01*
X133121800Y-124160000D02*
X132310600Y-123348800D01*
X135850000Y-124460000D02*
X140724200Y-124460000D01*
X140724200Y-124460000D02*
X140975200Y-124710900D01*
X135850000Y-124460000D02*
X135550000Y-124160000D01*
X170850000Y-127900000D02*
X170850000Y-128850000D01*
X171500000Y-129500000D02*
X171500000Y-133500000D01*
X170850000Y-128850000D02*
X171500000Y-129500000D01*
X157617842Y-127632158D02*
X157632158Y-127632158D01*
X157632158Y-127632158D02*
X158500000Y-128500000D01*
X147850000Y-134867900D02*
X147850000Y-134950000D01*
X151150000Y-129150000D02*
X149750000Y-130550000D01*
X149750000Y-130550000D02*
X149750000Y-131550000D01*
X149750000Y-131550000D02*
X150250000Y-132050000D01*
X151150000Y-128200000D02*
X151150000Y-129150000D01*
X147850000Y-134950000D02*
X147300000Y-135500000D01*
X141818050Y-123868050D02*
X141018050Y-123868050D01*
X141018050Y-123868050D02*
X140800000Y-123650000D01*
X142117842Y-132117842D02*
X142117842Y-133032158D01*
X142117842Y-133032158D02*
X141050000Y-134100000D01*
X170850000Y-127900000D02*
X171650000Y-127100000D01*
X171650000Y-127100000D02*
X171650000Y-122200000D01*
X171650000Y-122200000D02*
X171050000Y-121600000D01*
X160950000Y-122050000D02*
X161050000Y-122050000D01*
X163900000Y-124350000D02*
X163900000Y-124400000D01*
X167750000Y-120500000D02*
X163900000Y-124350000D01*
X130961260Y-120862500D02*
X131701000Y-121362500D01*
X132260600Y-121922100D02*
X132310600Y-123348800D01*
X131701000Y-121362500D02*
X132260600Y-121922100D01*
X130961260Y-120862500D02*
X130823760Y-121000000D01*
X143132000Y-131968000D02*
X143132000Y-132118000D01*
X144100000Y-131000000D02*
X143132000Y-131968000D01*
X144250000Y-131000000D02*
X144100000Y-131000000D01*
X143132000Y-132118000D02*
X144250000Y-131000000D01*
X143132000Y-132118000D02*
X143132000Y-132625000D01*
X142625000Y-132625000D02*
X142117900Y-132117900D01*
X143132000Y-133132000D02*
X142625000Y-132625000D01*
X143132000Y-132625000D02*
X143132000Y-133132000D01*
X142118000Y-132118000D02*
X143132000Y-132118000D01*
X142625000Y-132625000D02*
X142118000Y-132118000D01*
X132310600Y-123348800D02*
X132310600Y-124262100D01*
X132310600Y-129851200D02*
X132260600Y-128424500D01*
X157617900Y-127632100D02*
X157033000Y-128217000D01*
X156546500Y-129943300D02*
X157471700Y-129018100D01*
X156278700Y-129943300D02*
X156546500Y-129943300D01*
X155090700Y-128755300D02*
X156278700Y-129943300D01*
X155090700Y-128658700D02*
X155090700Y-128755300D01*
X157471700Y-128655800D02*
X157033000Y-128217000D01*
X157471700Y-129018100D02*
X157471700Y-128655800D01*
X164046600Y-129370400D02*
X164046600Y-128750000D01*
X163824500Y-129592500D02*
X164046600Y-129370400D01*
X158046100Y-129592500D02*
X163824500Y-129592500D01*
X157471700Y-129018100D02*
X158046100Y-129592500D01*
X164873800Y-128750000D02*
X164046600Y-128750000D01*
X140975200Y-124710900D02*
X141632100Y-125367900D01*
X143132100Y-132625100D02*
X143132100Y-133132100D01*
X143132000Y-132625000D02*
X143132100Y-132625100D01*
X148198000Y-134867900D02*
X148783000Y-134282900D01*
X145888500Y-134867900D02*
X147850000Y-134867900D01*
X147850000Y-134867900D02*
X148198000Y-134867900D01*
X145278000Y-135478400D02*
X145888500Y-134867900D01*
X144223200Y-135478400D02*
X145278000Y-135478400D01*
X143278300Y-134533500D02*
X144223200Y-135478400D01*
X143278300Y-134155800D02*
X143278300Y-134533500D01*
X143717100Y-133717000D02*
X143278300Y-134155800D01*
X143132100Y-133132100D02*
X143717100Y-133717000D01*
X149367900Y-134867900D02*
X148783000Y-134282900D01*
X154753800Y-128321800D02*
X155090700Y-128658700D01*
X154753800Y-128321800D02*
X154416900Y-127984900D01*
X143128000Y-123060000D02*
X145083100Y-125015100D01*
X142626100Y-123060000D02*
X143128000Y-123060000D01*
X140975200Y-124710900D02*
X141818050Y-123868050D01*
X141818050Y-123868050D02*
X142626100Y-123060000D01*
X151234900Y-121833100D02*
X150561300Y-122506700D01*
X150561300Y-122512600D02*
X150166700Y-122907200D01*
X150561300Y-122506800D02*
X150561300Y-122512600D01*
X150561300Y-122506700D02*
X150561300Y-122506800D01*
X154725400Y-120510400D02*
X154117900Y-121117900D01*
X155087200Y-120510400D02*
X154725400Y-120510400D01*
X146497000Y-129399000D02*
X146497000Y-129401000D01*
X146497300Y-129400700D02*
X146497300Y-129399100D01*
X146497000Y-129401000D02*
X146497300Y-129400700D01*
X145154000Y-133582000D02*
X144368000Y-134368000D01*
X145153800Y-133582000D02*
X144367900Y-134367900D01*
X145154000Y-133582000D02*
X145153800Y-133582000D01*
X145873000Y-132623000D02*
X146046100Y-132796100D01*
X145700000Y-132450000D02*
X145873000Y-132623000D01*
X145700000Y-130200000D02*
X145700000Y-132450000D01*
X146497000Y-129403000D02*
X145700000Y-130200000D01*
X146497000Y-129401000D02*
X146497000Y-129403000D01*
X145940000Y-132796000D02*
X145154000Y-133582000D01*
X146046000Y-132796000D02*
X145940000Y-132796000D01*
X145873000Y-132623000D02*
X146046000Y-132796000D01*
X127789400Y-123348800D02*
X127789400Y-129851200D01*
X127789400Y-123348800D02*
X127789400Y-124262100D01*
X129126200Y-123275300D02*
X129076200Y-121000000D01*
X127789400Y-124262100D02*
X129126200Y-123275300D01*
X127789400Y-129851200D02*
X127739400Y-128424500D01*
X146850900Y-129752700D02*
X147524600Y-129079000D01*
X143830800Y-125932000D02*
X143277300Y-125932000D01*
X144490700Y-126591900D02*
X143830800Y-125932000D01*
X146439300Y-126591900D02*
X144490700Y-126591900D01*
X147463600Y-127616200D02*
X146439300Y-126591900D01*
X147463600Y-129018100D02*
X147463600Y-127616200D01*
X147524600Y-129079000D02*
X147463600Y-129018100D01*
X126500000Y-132500000D02*
X126500000Y-134250000D01*
X126500000Y-134250000D02*
X127015800Y-134765800D01*
X124550000Y-121220000D02*
X125970000Y-121220000D01*
X125970000Y-121220000D02*
X126500000Y-122500000D01*
X126500000Y-122500000D02*
X126500000Y-127250000D01*
X126500000Y-127250000D02*
X126500000Y-129000000D01*
X126500000Y-129000000D02*
X126500000Y-132500000D01*
X126500000Y-132500000D02*
X126500000Y-132750000D01*
X142868000Y-124132000D02*
X142867900Y-124132100D01*
X152479000Y-119882000D02*
X150881000Y-121480000D01*
X152882000Y-119882000D02*
X152479000Y-119882000D01*
X152882000Y-119882000D02*
X152882100Y-119882100D01*
X123190000Y-137160000D02*
X123190000Y-135448600D01*
X123872800Y-134765800D02*
X127015800Y-134765800D01*
X123190000Y-135448600D02*
X123872800Y-134765800D01*
X134626200Y-132500000D02*
X133799000Y-132500000D01*
X127015800Y-134765800D02*
X131533200Y-134765800D01*
X131533200Y-134765800D02*
X133799000Y-132500000D01*
X164873800Y-126750000D02*
X164046600Y-126750000D01*
X143493000Y-124132000D02*
X144729500Y-125368500D01*
X142868000Y-124132000D02*
X143493000Y-124132000D01*
X144729500Y-125368500D02*
X144730000Y-125369000D01*
X144729500Y-125368500D02*
X144729500Y-125368600D01*
X155264700Y-128125700D02*
X154770500Y-127631400D01*
X156007000Y-128868000D02*
X155264700Y-128125700D01*
X156382000Y-128868000D02*
X156007000Y-128868000D01*
X156382000Y-128868000D02*
X156382100Y-128867900D01*
X167180000Y-123500000D02*
X166165300Y-124500000D01*
X164046600Y-125907500D02*
X164046600Y-126750000D01*
X157482900Y-125907500D02*
X164046600Y-125907500D01*
X155264700Y-128125700D02*
X157482900Y-125907500D01*
X164757800Y-125907500D02*
X166165300Y-124500000D01*
X164046600Y-125907500D02*
X164757800Y-125907500D01*
X135453400Y-133120400D02*
X135453400Y-132500000D01*
X135691300Y-133358300D02*
X135453400Y-133120400D01*
X137064700Y-133358300D02*
X135691300Y-133358300D01*
X137301000Y-133122000D02*
X137064700Y-133358300D01*
X137301000Y-130890500D02*
X137301000Y-133122000D01*
X142868000Y-125323500D02*
X137301000Y-130890500D01*
X142868000Y-124132000D02*
X142868000Y-125323500D01*
X134626200Y-132500000D02*
X135453400Y-132500000D01*
X150881400Y-121479500D02*
X150544600Y-121816300D01*
X150544600Y-121816300D02*
X150207700Y-122153200D01*
X150544700Y-121816300D02*
X150881000Y-121480000D01*
X150544600Y-121816300D02*
X150544700Y-121816300D01*
X154770500Y-127631400D02*
X154770000Y-127631000D01*
X149458000Y-122622200D02*
X149458000Y-125867700D01*
X149927000Y-122153200D02*
X149458000Y-122622200D01*
X150207700Y-122153200D02*
X149927000Y-122153200D01*
X145228700Y-125867700D02*
X149458000Y-125867700D01*
X144730000Y-125369000D02*
X145228700Y-125867700D01*
X153006700Y-125867700D02*
X154770000Y-127631000D01*
X149458000Y-125867700D02*
X153006700Y-125867700D01*
X147558000Y-130460000D02*
X147557800Y-130460000D01*
X148132000Y-133132000D02*
X148132000Y-133398300D01*
X146700000Y-131700000D02*
X148132000Y-133132000D01*
X146700000Y-131300000D02*
X146700000Y-131700000D01*
X147540000Y-130460000D02*
X146700000Y-131300000D01*
X147557800Y-130460000D02*
X147540000Y-130460000D01*
X148132000Y-133398300D02*
X148132000Y-133632000D01*
X148132100Y-133398400D02*
X148132100Y-133632100D01*
X148132000Y-133398300D02*
X148132100Y-133398400D01*
X147557800Y-130460000D02*
X147558000Y-130459800D01*
X150922200Y-127095600D02*
X153188200Y-127095600D01*
X147558000Y-130459800D02*
X150922200Y-127095600D01*
X143509800Y-114616000D02*
X143510000Y-118666700D01*
X145805800Y-118666700D02*
X143510000Y-118666700D01*
X148618600Y-121479500D02*
X145805800Y-118666700D01*
X151588500Y-122186600D02*
X150914700Y-122860400D01*
X150914700Y-123168900D02*
X150191000Y-123892600D01*
X150914700Y-122860500D02*
X150914700Y-123168900D01*
X150914700Y-122860400D02*
X150914700Y-122860500D01*
X136373800Y-131478500D02*
X136373800Y-132500000D01*
X135500000Y-130604700D02*
X136373800Y-131478500D01*
X135550000Y-129240000D02*
X135500000Y-130604700D01*
X146143800Y-123954400D02*
X146817500Y-124628000D01*
X147412200Y-124500000D02*
X147800000Y-124500000D01*
X146817500Y-124628000D02*
X147412200Y-124500000D01*
X144163200Y-127631400D02*
X143929600Y-127397800D01*
X144729500Y-127631400D02*
X144163200Y-127631400D01*
X145083100Y-127984900D02*
X144409300Y-128658700D01*
X141675400Y-127653800D02*
X140447800Y-128881400D01*
X143171600Y-127653800D02*
X141675400Y-127653800D01*
X144176500Y-128658700D02*
X143171600Y-127653800D01*
X144409300Y-128658700D02*
X144176500Y-128658700D01*
X135930000Y-135133300D02*
X133350000Y-135133300D01*
X137977200Y-133086100D02*
X135930000Y-135133300D01*
X137977200Y-132367300D02*
X137977200Y-133086100D01*
X141188600Y-129155900D02*
X137977200Y-132367300D01*
X141188600Y-129043900D02*
X141188600Y-129155900D01*
X142125900Y-128106600D02*
X141188600Y-129043900D01*
X142984100Y-128106600D02*
X142125900Y-128106600D01*
X144017700Y-129140200D02*
X142984100Y-128106600D01*
X144634900Y-129140200D02*
X144017700Y-129140200D01*
X145436600Y-128338500D02*
X144634900Y-129140200D01*
X133350000Y-137160000D02*
X133350000Y-135133300D01*
X146638200Y-127844000D02*
X146688300Y-127844000D01*
X145790200Y-128692000D02*
X146638200Y-127844000D01*
X148618700Y-130106200D02*
X148959900Y-130106200D01*
X147911500Y-130813400D02*
X148618700Y-130106200D01*
X148265100Y-131166900D02*
X147591300Y-131840700D01*
X148438900Y-132688300D02*
X148759900Y-132688300D01*
X147591300Y-131840700D02*
X148438900Y-132688300D01*
X150479000Y-135271000D02*
X148590000Y-137160000D01*
X150479000Y-133380900D02*
X150479000Y-135271000D01*
X148618600Y-131520500D02*
X150479000Y-133380900D01*
X151130000Y-132619200D02*
X151130000Y-137160000D01*
X151555100Y-132194100D02*
X151130000Y-132619200D01*
X150881400Y-131520500D02*
X151555100Y-132194100D01*
X153670000Y-133602000D02*
X153670000Y-137160000D01*
X151234900Y-131166900D02*
X153670000Y-133602000D01*
X156210000Y-135434900D02*
X156210000Y-137160000D01*
X151588500Y-130813400D02*
X156210000Y-135434900D01*
X158642200Y-137160000D02*
X158750000Y-137160000D01*
X151942000Y-130459800D02*
X158642200Y-137160000D01*
X157372700Y-135183300D02*
X161290000Y-135183300D01*
X152295600Y-130106200D02*
X157372700Y-135183300D01*
X161290000Y-137160000D02*
X161290000Y-135183300D01*
X163069300Y-134572600D02*
X163830000Y-135333300D01*
X157469000Y-134572600D02*
X163069300Y-134572600D01*
X152649100Y-129752700D02*
X157469000Y-134572600D01*
X163830000Y-137160000D02*
X163830000Y-135333300D01*
X166370000Y-137160000D02*
X166370000Y-135333300D01*
X165071700Y-134035000D02*
X166370000Y-135333300D01*
X157638600Y-134035000D02*
X165071700Y-134035000D01*
X153002700Y-129399100D02*
X157638600Y-134035000D01*
X168910000Y-137160000D02*
X168910000Y-135333300D01*
X167059000Y-133482300D02*
X168910000Y-135333300D01*
X157792900Y-133482300D02*
X167059000Y-133482300D01*
X153356200Y-129045600D02*
X157792900Y-133482300D01*
X153709800Y-128692000D02*
X154383600Y-129365800D01*
X171450000Y-137160000D02*
X171450000Y-135333300D01*
X169146300Y-133029600D02*
X171450000Y-135333300D01*
X158047400Y-133029600D02*
X169146300Y-133029600D01*
X154383600Y-129365800D02*
X158047400Y-133029600D01*
X148345500Y-128965100D02*
X148345500Y-128666600D01*
X147204400Y-130106200D02*
X148345500Y-128965100D01*
X123189800Y-114616000D02*
X123189800Y-114537788D01*
X125695780Y-119100000D02*
X123189800Y-114537788D01*
X131129900Y-119100000D02*
X125695780Y-119100000D01*
X134637200Y-122607300D02*
X131129900Y-119100000D01*
X143315600Y-122607300D02*
X134637200Y-122607300D01*
X144696200Y-123987900D02*
X143315600Y-122607300D01*
X144762900Y-123987900D02*
X144696200Y-123987900D01*
X144763000Y-123987800D02*
X144762900Y-123987900D01*
X145436600Y-124661500D02*
X144763000Y-123987800D01*
D17*
X145723400Y-124308000D02*
X145790200Y-124308000D01*
X145691000Y-124275600D02*
X145723400Y-124308000D01*
D16*
X126418000Y-118254700D02*
X125729946Y-117566646D01*
X131384900Y-118254700D02*
X126418000Y-118254700D01*
X135284700Y-122154500D02*
X131384900Y-118254700D01*
X143569900Y-122154500D02*
X135284700Y-122154500D01*
X145691000Y-124275600D02*
X143569900Y-122154500D01*
X125729800Y-114616000D02*
X125729946Y-117566646D01*
X129189000Y-117485700D02*
X128269896Y-116566596D01*
X131727100Y-117485700D02*
X129189000Y-117485700D01*
X135943100Y-121701700D02*
X131727100Y-117485700D01*
X144598100Y-121701700D02*
X135943100Y-121701700D01*
X146497300Y-123600900D02*
X144598100Y-121701700D01*
X128269800Y-114616000D02*
X128269896Y-116566596D01*
X130809800Y-114616000D02*
X130809906Y-116766700D01*
X132098400Y-116766700D02*
X130809906Y-116766700D01*
X136498800Y-121167100D02*
X132098400Y-116766700D01*
X144770700Y-121167100D02*
X136498800Y-121167100D01*
X146850900Y-123247300D02*
X144770700Y-121167100D01*
X133349800Y-114616000D02*
X133349901Y-116666601D01*
X137347700Y-120664400D02*
X133349901Y-116666601D01*
X144975000Y-120664400D02*
X137347700Y-120664400D01*
X147204400Y-122893800D02*
X144975000Y-120664400D01*
X135889800Y-114616000D02*
X135889951Y-117666651D01*
X138435000Y-120211700D02*
X135889951Y-117666651D01*
X145229500Y-120211700D02*
X138435000Y-120211700D01*
X147558000Y-122540200D02*
X145229500Y-120211700D01*
X138429800Y-114616000D02*
X138430000Y-118666700D01*
X139472300Y-119709000D02*
X138430000Y-118666700D01*
X145433897Y-119709000D02*
X139472300Y-119709000D01*
X147237900Y-121512900D02*
X145433897Y-119709000D01*
X147911500Y-122186600D02*
X147237900Y-121512900D01*
X140969800Y-114616000D02*
X140970000Y-118666700D01*
X148265100Y-121833100D02*
X147591300Y-121159300D01*
X141472700Y-119169400D02*
X140970000Y-118666700D01*
X145601400Y-119169400D02*
X141472700Y-119169400D01*
X147591300Y-121159300D02*
X145601400Y-119169400D01*
X152448600Y-122033600D02*
X151942000Y-122540200D01*
X152448600Y-121258100D02*
X152448600Y-122033600D01*
X152290900Y-121100400D02*
X152448600Y-121258100D01*
X151129800Y-114616000D02*
X151130000Y-118666700D01*
D17*
X152295600Y-122893800D02*
X152951600Y-122237800D01*
X152951600Y-122237900D02*
X152951600Y-122237800D01*
X153024100Y-122237900D02*
X152951600Y-122237900D01*
D16*
X153022800Y-118666700D02*
X151130000Y-118666700D01*
X153977200Y-119621100D02*
X153022800Y-118666700D01*
X153977200Y-120022800D02*
X153977200Y-119621100D01*
X153024100Y-120975900D02*
X153977200Y-120022800D01*
X153024100Y-122237900D02*
X153024100Y-120975900D01*
X152000000Y-124176800D02*
X152000000Y-124550000D01*
X151975500Y-123920900D02*
X152000000Y-124176800D01*
X152649100Y-123247300D02*
X151975500Y-123920900D01*
X153002700Y-123600900D02*
X153676500Y-122927100D01*
X156210000Y-120393600D02*
X156209800Y-114616000D01*
X153676500Y-122927100D02*
X156210000Y-120393600D01*
X153356200Y-123954400D02*
X154029900Y-123280700D01*
X158749800Y-114616000D02*
X158750000Y-118666700D01*
X158643900Y-118666700D02*
X158750000Y-118666700D01*
X154029900Y-123280700D02*
X158643900Y-118666700D01*
X159463300Y-118666700D02*
X161290000Y-118666700D01*
X155478000Y-122652000D02*
X159463300Y-118666700D01*
X155365800Y-122652000D02*
X155478000Y-122652000D01*
X154383600Y-123634200D02*
X155365800Y-122652000D01*
X153709800Y-124308000D02*
X154383600Y-123634200D01*
X161289800Y-114616000D02*
X161290000Y-118666700D01*
X163853300Y-118666700D02*
X163830000Y-118666700D01*
X162148900Y-120371100D02*
X163853300Y-118666700D01*
X158399200Y-120371100D02*
X162148900Y-120371100D01*
X154782400Y-123987900D02*
X158399200Y-120371100D01*
X154737100Y-123987900D02*
X154782400Y-123987900D01*
X154737100Y-123987800D02*
X154737100Y-123987900D01*
X154063400Y-124661500D02*
X154737100Y-123987800D01*
X163829800Y-114616000D02*
X163830000Y-118666700D01*
X166369800Y-114616000D02*
X166370000Y-118666700D01*
X154416900Y-125015100D02*
X155090700Y-124341300D01*
X161479200Y-123557500D02*
X166370000Y-118666700D01*
X155874500Y-123557500D02*
X161479200Y-123557500D01*
X155090700Y-124341300D02*
X155874500Y-123557500D01*
X167883300Y-118666700D02*
X168910000Y-118666700D01*
X161855000Y-124695000D02*
X167883300Y-118666700D01*
X155444200Y-124695000D02*
X161855000Y-124695000D01*
X155444200Y-124694900D02*
X155444200Y-124695000D01*
X154770500Y-125368600D02*
X155444200Y-124694900D01*
X168909800Y-114616000D02*
X168910000Y-118666700D01*
X168339900Y-121776800D02*
X171450000Y-118666700D01*
X168339900Y-131923000D02*
X168339900Y-121776800D01*
X167686100Y-132576800D02*
X168339900Y-131923000D01*
X158234900Y-132576800D02*
X167686100Y-132576800D01*
X154063400Y-128405300D02*
X158234900Y-132576800D01*
X154063400Y-128338500D02*
X154063400Y-128405300D01*
X171449800Y-114616000D02*
X171450000Y-118666700D01*
X163126200Y-128750000D02*
X163126200Y-126750000D01*
D18*
G36*
X125857000Y-137033000D02*
X125877000Y-137033000D01*
X125877000Y-137287000D01*
X125857000Y-137287000D01*
X125857000Y-137307000D01*
X125603000Y-137307000D01*
X125603000Y-137287000D01*
X125583000Y-137287000D01*
X125583000Y-137033000D01*
X125603000Y-137033000D01*
X125603000Y-137013000D01*
X125857000Y-137013000D01*
X125857000Y-137033000D01*
X125857000Y-137033000D01*
G37*
X125857000Y-137033000D02*
X125877000Y-137033000D01*
X125877000Y-137287000D01*
X125857000Y-137287000D01*
X125857000Y-137307000D01*
X125603000Y-137307000D01*
X125603000Y-137287000D01*
X125583000Y-137287000D01*
X125583000Y-137033000D01*
X125603000Y-137033000D01*
X125603000Y-137013000D01*
X125857000Y-137013000D01*
X125857000Y-137033000D01*
G36*
X152885000Y-133927158D02*
X152885000Y-135232349D01*
X152682172Y-135367875D01*
X152400000Y-135790174D01*
X152117828Y-135367875D01*
X151915000Y-135232349D01*
X151915000Y-132957158D01*
X152885000Y-133927158D01*
X152885000Y-133927158D01*
G37*
X152885000Y-133927158D02*
X152885000Y-135232349D01*
X152682172Y-135367875D01*
X152400000Y-135790174D01*
X152117828Y-135367875D01*
X151915000Y-135232349D01*
X151915000Y-132957158D01*
X152885000Y-133927158D01*
G36*
X146921804Y-134100743D02*
X147663573Y-134842512D01*
X147861276Y-134977597D01*
X147980297Y-135003416D01*
X147980297Y-135004928D01*
X148016078Y-135091311D01*
X147602172Y-135367875D01*
X147320000Y-135790174D01*
X147037828Y-135367875D01*
X146584609Y-135065043D01*
X146050000Y-134958703D01*
X145515391Y-135065043D01*
X145062172Y-135367875D01*
X144780000Y-135790174D01*
X144692562Y-135659314D01*
X144814875Y-135578196D01*
X145578196Y-134814875D01*
X145713281Y-134617172D01*
X145767765Y-134366010D01*
X145732246Y-134177241D01*
X145955461Y-134221642D01*
X146466344Y-134120020D01*
X146790808Y-133903221D01*
X146921804Y-134100743D01*
X146921804Y-134100743D01*
G37*
X146921804Y-134100743D02*
X147663573Y-134842512D01*
X147861276Y-134977597D01*
X147980297Y-135003416D01*
X147980297Y-135004928D01*
X148016078Y-135091311D01*
X147602172Y-135367875D01*
X147320000Y-135790174D01*
X147037828Y-135367875D01*
X146584609Y-135065043D01*
X146050000Y-134958703D01*
X145515391Y-135065043D01*
X145062172Y-135367875D01*
X144780000Y-135790174D01*
X144692562Y-135659314D01*
X144814875Y-135578196D01*
X145578196Y-134814875D01*
X145713281Y-134617172D01*
X145767765Y-134366010D01*
X145732246Y-134177241D01*
X145955461Y-134221642D01*
X146466344Y-134120020D01*
X146790808Y-133903221D01*
X146921804Y-134100743D01*
G36*
X142311590Y-132103700D02*
X142297447Y-132117842D01*
X143132158Y-132952553D01*
X143146301Y-132938411D01*
X143325906Y-133118016D01*
X143311763Y-133132158D01*
X143325906Y-133146301D01*
X143146301Y-133325906D01*
X143132158Y-133311763D01*
X142503540Y-133940381D01*
X142503540Y-134164887D01*
X142761683Y-134423030D01*
X142995072Y-134519703D01*
X142996149Y-134519703D01*
X143015443Y-134622245D01*
X143157488Y-134836427D01*
X143317963Y-134996902D01*
X142975391Y-135065043D01*
X142522172Y-135367875D01*
X142240000Y-135790174D01*
X141957828Y-135367875D01*
X141504609Y-135065043D01*
X140970000Y-134958703D01*
X140435391Y-135065043D01*
X139982172Y-135367875D01*
X139700000Y-135790174D01*
X139452978Y-135420480D01*
X141437179Y-133436279D01*
X141572464Y-133233811D01*
X141747367Y-133408714D01*
X141813778Y-133436222D01*
X141841286Y-133502633D01*
X142099429Y-133760776D01*
X142323935Y-133760776D01*
X142952553Y-133132158D01*
X142117842Y-132297447D01*
X142103700Y-132311590D01*
X141924095Y-132131985D01*
X141938237Y-132117842D01*
X141932327Y-132111932D01*
X142022179Y-132022079D01*
X142022199Y-132022049D01*
X142022226Y-132022031D01*
X142055357Y-131972437D01*
X142103700Y-131924095D01*
X142117842Y-131938237D01*
X142131985Y-131924095D01*
X142311590Y-132103700D01*
X142311590Y-132103700D01*
G37*
X142311590Y-132103700D02*
X142297447Y-132117842D01*
X143132158Y-132952553D01*
X143146301Y-132938411D01*
X143325906Y-133118016D01*
X143311763Y-133132158D01*
X143325906Y-133146301D01*
X143146301Y-133325906D01*
X143132158Y-133311763D01*
X142503540Y-133940381D01*
X142503540Y-134164887D01*
X142761683Y-134423030D01*
X142995072Y-134519703D01*
X142996149Y-134519703D01*
X143015443Y-134622245D01*
X143157488Y-134836427D01*
X143317963Y-134996902D01*
X142975391Y-135065043D01*
X142522172Y-135367875D01*
X142240000Y-135790174D01*
X141957828Y-135367875D01*
X141504609Y-135065043D01*
X140970000Y-134958703D01*
X140435391Y-135065043D01*
X139982172Y-135367875D01*
X139700000Y-135790174D01*
X139452978Y-135420480D01*
X141437179Y-133436279D01*
X141572464Y-133233811D01*
X141747367Y-133408714D01*
X141813778Y-133436222D01*
X141841286Y-133502633D01*
X142099429Y-133760776D01*
X142323935Y-133760776D01*
X142952553Y-133132158D01*
X142117842Y-132297447D01*
X142103700Y-132311590D01*
X141924095Y-132131985D01*
X141938237Y-132117842D01*
X141932327Y-132111932D01*
X142022179Y-132022079D01*
X142022199Y-132022049D01*
X142022226Y-132022031D01*
X142055357Y-131972437D01*
X142103700Y-131924095D01*
X142117842Y-131938237D01*
X142131985Y-131924095D01*
X142311590Y-132103700D01*
G36*
X140142885Y-131821824D02*
X140118154Y-131946157D01*
X140097100Y-132052000D01*
X140097100Y-132556042D01*
X137874921Y-134778221D01*
X137704755Y-135032893D01*
X137668158Y-135216875D01*
X137442172Y-135367875D01*
X137160000Y-135790174D01*
X136877828Y-135367875D01*
X136834520Y-135338938D01*
X138532279Y-133641179D01*
X138702445Y-133386507D01*
X138762200Y-133086100D01*
X138762200Y-132692458D01*
X139887860Y-131566799D01*
X140142885Y-131821824D01*
X140142885Y-131821824D01*
G37*
X140142885Y-131821824D02*
X140118154Y-131946157D01*
X140097100Y-132052000D01*
X140097100Y-132556042D01*
X137874921Y-134778221D01*
X137704755Y-135032893D01*
X137668158Y-135216875D01*
X137442172Y-135367875D01*
X137160000Y-135790174D01*
X136877828Y-135367875D01*
X136834520Y-135338938D01*
X138532279Y-133641179D01*
X138702445Y-133386507D01*
X138762200Y-133086100D01*
X138762200Y-132692458D01*
X139887860Y-131566799D01*
X140142885Y-131821824D01*
G36*
X149561590Y-134853700D02*
X149547447Y-134867842D01*
X149561590Y-134881985D01*
X149381985Y-135061590D01*
X149367842Y-135047447D01*
X149353700Y-135061590D01*
X149174095Y-134881985D01*
X149188237Y-134867842D01*
X149174095Y-134853700D01*
X149353700Y-134674095D01*
X149367842Y-134688237D01*
X149381985Y-134674095D01*
X149561590Y-134853700D01*
X149561590Y-134853700D01*
G37*
X149561590Y-134853700D02*
X149547447Y-134867842D01*
X149561590Y-134881985D01*
X149381985Y-135061590D01*
X149367842Y-135047447D01*
X149353700Y-135061590D01*
X149174095Y-134881985D01*
X149188237Y-134867842D01*
X149174095Y-134853700D01*
X149353700Y-134674095D01*
X149367842Y-134688237D01*
X149381985Y-134674095D01*
X149561590Y-134853700D01*
G36*
X123211094Y-132670660D02*
X123745703Y-132777000D01*
X125354297Y-132777000D01*
X125715000Y-132705252D01*
X125715000Y-133980800D01*
X123872800Y-133980800D01*
X123572393Y-134040555D01*
X123317721Y-134210721D01*
X122960000Y-134568442D01*
X122960000Y-132502884D01*
X123211094Y-132670660D01*
X123211094Y-132670660D01*
G37*
X123211094Y-132670660D02*
X123745703Y-132777000D01*
X125354297Y-132777000D01*
X125715000Y-132705252D01*
X125715000Y-133980800D01*
X123872800Y-133980800D01*
X123572393Y-134040555D01*
X123317721Y-134210721D01*
X122960000Y-134568442D01*
X122960000Y-132502884D01*
X123211094Y-132670660D01*
G36*
X171540000Y-134313142D02*
X169977029Y-132750171D01*
X170254609Y-132694957D01*
X170707828Y-132392125D01*
X171010660Y-131938906D01*
X171117000Y-131404297D01*
X171117000Y-129795703D01*
X171010660Y-129261094D01*
X170707828Y-128807875D01*
X170254609Y-128505043D01*
X169720000Y-128398703D01*
X169185391Y-128505043D01*
X169124900Y-128545462D01*
X169124900Y-125554538D01*
X169185391Y-125594957D01*
X169720000Y-125701297D01*
X170254609Y-125594957D01*
X170707828Y-125292125D01*
X171010660Y-124838906D01*
X171117000Y-124304297D01*
X171117000Y-122695703D01*
X171010660Y-122161094D01*
X170707828Y-121707875D01*
X170254609Y-121405043D01*
X169893620Y-121333238D01*
X171540000Y-119686858D01*
X171540000Y-134313142D01*
X171540000Y-134313142D01*
G37*
X171540000Y-134313142D02*
X169977029Y-132750171D01*
X170254609Y-132694957D01*
X170707828Y-132392125D01*
X171010660Y-131938906D01*
X171117000Y-131404297D01*
X171117000Y-129795703D01*
X171010660Y-129261094D01*
X170707828Y-128807875D01*
X170254609Y-128505043D01*
X169720000Y-128398703D01*
X169185391Y-128505043D01*
X169124900Y-128545462D01*
X169124900Y-125554538D01*
X169185391Y-125594957D01*
X169720000Y-125701297D01*
X170254609Y-125594957D01*
X170707828Y-125292125D01*
X171010660Y-124838906D01*
X171117000Y-124304297D01*
X171117000Y-122695703D01*
X171010660Y-122161094D01*
X170707828Y-121707875D01*
X170254609Y-121405043D01*
X169893620Y-121333238D01*
X171540000Y-119686858D01*
X171540000Y-134313142D01*
G36*
X130950760Y-120873000D02*
X130970760Y-120873000D01*
X130970760Y-121127000D01*
X130950760Y-121127000D01*
X130950760Y-122016000D01*
X131023208Y-122088448D01*
X130913600Y-122459800D01*
X130913600Y-123221800D01*
X132183600Y-123221800D01*
X132183600Y-123201800D01*
X132437600Y-123201800D01*
X132437600Y-123221800D01*
X132457600Y-123221800D01*
X132457600Y-123475800D01*
X132437600Y-123475800D01*
X132437600Y-125342520D01*
X132653670Y-125465020D01*
X132727877Y-125450060D01*
X133208626Y-125188430D01*
X133550874Y-124764950D01*
X133710370Y-125058026D01*
X134136059Y-125402059D01*
X134195662Y-125419651D01*
X133757875Y-125712172D01*
X133455043Y-126165391D01*
X133348703Y-126700000D01*
X133455043Y-127234609D01*
X133757875Y-127687828D01*
X134180174Y-127970000D01*
X133757875Y-128252172D01*
X133577644Y-128521907D01*
X133552659Y-128437259D01*
X133208626Y-128011570D01*
X132727877Y-127749940D01*
X132653670Y-127734980D01*
X132437600Y-127857480D01*
X132437600Y-129724200D01*
X132457600Y-129724200D01*
X132457600Y-129978200D01*
X132437600Y-129978200D01*
X132437600Y-131844920D01*
X132653670Y-131967420D01*
X132727877Y-131952460D01*
X133208626Y-131690830D01*
X133552659Y-131265141D01*
X133707600Y-130740200D01*
X133707600Y-130152586D01*
X133757875Y-130227828D01*
X134211094Y-130530660D01*
X134720425Y-130631972D01*
X134742126Y-130741069D01*
X134764242Y-130878351D01*
X134771906Y-130890783D01*
X134774755Y-130905107D01*
X134852009Y-131020725D01*
X134924970Y-131139083D01*
X134936807Y-131147635D01*
X134944921Y-131159779D01*
X135097952Y-131312810D01*
X134101730Y-131312810D01*
X133866413Y-131357088D01*
X133650289Y-131496160D01*
X133505299Y-131708360D01*
X133490799Y-131779963D01*
X133243921Y-131944921D01*
X131208042Y-133980800D01*
X127340958Y-133980800D01*
X127285000Y-133924842D01*
X127285000Y-131952166D01*
X127789400Y-132052497D01*
X128324009Y-131946157D01*
X128777228Y-131643325D01*
X129080060Y-131190106D01*
X129186400Y-130655497D01*
X129186400Y-129978200D01*
X130913600Y-129978200D01*
X130913600Y-130740200D01*
X131068541Y-131265141D01*
X131412574Y-131690830D01*
X131893323Y-131952460D01*
X131967530Y-131967420D01*
X132183600Y-131844920D01*
X132183600Y-129978200D01*
X130913600Y-129978200D01*
X129186400Y-129978200D01*
X129186400Y-129046903D01*
X129169552Y-128962200D01*
X130913600Y-128962200D01*
X130913600Y-129724200D01*
X132183600Y-129724200D01*
X132183600Y-127857480D01*
X131967530Y-127734980D01*
X131893323Y-127749940D01*
X131412574Y-128011570D01*
X131068541Y-128437259D01*
X130913600Y-128962200D01*
X129169552Y-128962200D01*
X129080060Y-128512294D01*
X128777228Y-128059075D01*
X128574400Y-127923549D01*
X128574400Y-125276451D01*
X128777228Y-125140925D01*
X129080060Y-124687706D01*
X129173932Y-124215776D01*
X129592409Y-123906865D01*
X129637942Y-123856853D01*
X129693340Y-123818050D01*
X129740060Y-123744689D01*
X129798610Y-123680379D01*
X129821539Y-123616749D01*
X129857870Y-123559700D01*
X129872650Y-123475800D01*
X130913600Y-123475800D01*
X130913600Y-124237800D01*
X131068541Y-124762741D01*
X131412574Y-125188430D01*
X131893323Y-125450060D01*
X131967530Y-125465020D01*
X132183600Y-125342520D01*
X132183600Y-123475800D01*
X130913600Y-123475800D01*
X129872650Y-123475800D01*
X129872959Y-123474049D01*
X129902444Y-123392224D01*
X129899277Y-123324662D01*
X129911011Y-123258053D01*
X129885802Y-122110908D01*
X129938484Y-122077009D01*
X129939552Y-122078077D01*
X130172941Y-122174750D01*
X130538010Y-122174750D01*
X130696760Y-122016000D01*
X130696760Y-121127000D01*
X130676760Y-121127000D01*
X130676760Y-120873000D01*
X130696760Y-120873000D01*
X130696760Y-120853000D01*
X130950760Y-120853000D01*
X130950760Y-120873000D01*
X130950760Y-120873000D01*
G37*
X130950760Y-120873000D02*
X130970760Y-120873000D01*
X130970760Y-121127000D01*
X130950760Y-121127000D01*
X130950760Y-122016000D01*
X131023208Y-122088448D01*
X130913600Y-122459800D01*
X130913600Y-123221800D01*
X132183600Y-123221800D01*
X132183600Y-123201800D01*
X132437600Y-123201800D01*
X132437600Y-123221800D01*
X132457600Y-123221800D01*
X132457600Y-123475800D01*
X132437600Y-123475800D01*
X132437600Y-125342520D01*
X132653670Y-125465020D01*
X132727877Y-125450060D01*
X133208626Y-125188430D01*
X133550874Y-124764950D01*
X133710370Y-125058026D01*
X134136059Y-125402059D01*
X134195662Y-125419651D01*
X133757875Y-125712172D01*
X133455043Y-126165391D01*
X133348703Y-126700000D01*
X133455043Y-127234609D01*
X133757875Y-127687828D01*
X134180174Y-127970000D01*
X133757875Y-128252172D01*
X133577644Y-128521907D01*
X133552659Y-128437259D01*
X133208626Y-128011570D01*
X132727877Y-127749940D01*
X132653670Y-127734980D01*
X132437600Y-127857480D01*
X132437600Y-129724200D01*
X132457600Y-129724200D01*
X132457600Y-129978200D01*
X132437600Y-129978200D01*
X132437600Y-131844920D01*
X132653670Y-131967420D01*
X132727877Y-131952460D01*
X133208626Y-131690830D01*
X133552659Y-131265141D01*
X133707600Y-130740200D01*
X133707600Y-130152586D01*
X133757875Y-130227828D01*
X134211094Y-130530660D01*
X134720425Y-130631972D01*
X134742126Y-130741069D01*
X134764242Y-130878351D01*
X134771906Y-130890783D01*
X134774755Y-130905107D01*
X134852009Y-131020725D01*
X134924970Y-131139083D01*
X134936807Y-131147635D01*
X134944921Y-131159779D01*
X135097952Y-131312810D01*
X134101730Y-131312810D01*
X133866413Y-131357088D01*
X133650289Y-131496160D01*
X133505299Y-131708360D01*
X133490799Y-131779963D01*
X133243921Y-131944921D01*
X131208042Y-133980800D01*
X127340958Y-133980800D01*
X127285000Y-133924842D01*
X127285000Y-131952166D01*
X127789400Y-132052497D01*
X128324009Y-131946157D01*
X128777228Y-131643325D01*
X129080060Y-131190106D01*
X129186400Y-130655497D01*
X129186400Y-129978200D01*
X130913600Y-129978200D01*
X130913600Y-130740200D01*
X131068541Y-131265141D01*
X131412574Y-131690830D01*
X131893323Y-131952460D01*
X131967530Y-131967420D01*
X132183600Y-131844920D01*
X132183600Y-129978200D01*
X130913600Y-129978200D01*
X129186400Y-129978200D01*
X129186400Y-129046903D01*
X129169552Y-128962200D01*
X130913600Y-128962200D01*
X130913600Y-129724200D01*
X132183600Y-129724200D01*
X132183600Y-127857480D01*
X131967530Y-127734980D01*
X131893323Y-127749940D01*
X131412574Y-128011570D01*
X131068541Y-128437259D01*
X130913600Y-128962200D01*
X129169552Y-128962200D01*
X129080060Y-128512294D01*
X128777228Y-128059075D01*
X128574400Y-127923549D01*
X128574400Y-125276451D01*
X128777228Y-125140925D01*
X129080060Y-124687706D01*
X129173932Y-124215776D01*
X129592409Y-123906865D01*
X129637942Y-123856853D01*
X129693340Y-123818050D01*
X129740060Y-123744689D01*
X129798610Y-123680379D01*
X129821539Y-123616749D01*
X129857870Y-123559700D01*
X129872650Y-123475800D01*
X130913600Y-123475800D01*
X130913600Y-124237800D01*
X131068541Y-124762741D01*
X131412574Y-125188430D01*
X131893323Y-125450060D01*
X131967530Y-125465020D01*
X132183600Y-125342520D01*
X132183600Y-123475800D01*
X130913600Y-123475800D01*
X129872650Y-123475800D01*
X129872959Y-123474049D01*
X129902444Y-123392224D01*
X129899277Y-123324662D01*
X129911011Y-123258053D01*
X129885802Y-122110908D01*
X129938484Y-122077009D01*
X129939552Y-122078077D01*
X130172941Y-122174750D01*
X130538010Y-122174750D01*
X130696760Y-122016000D01*
X130696760Y-121127000D01*
X130676760Y-121127000D01*
X130676760Y-120873000D01*
X130696760Y-120873000D01*
X130696760Y-120853000D01*
X130950760Y-120853000D01*
X130950760Y-120873000D01*
G36*
X166645391Y-125594957D02*
X167180000Y-125701297D01*
X167554900Y-125626725D01*
X167554900Y-128490197D01*
X167523070Y-128483780D01*
X167307000Y-128606280D01*
X167307000Y-130473000D01*
X167327000Y-130473000D01*
X167327000Y-130727000D01*
X167307000Y-130727000D01*
X167307000Y-130747000D01*
X167053000Y-130747000D01*
X167053000Y-130727000D01*
X165783000Y-130727000D01*
X165783000Y-131489000D01*
X165872374Y-131791800D01*
X158560058Y-131791800D01*
X156848164Y-130079906D01*
X156850743Y-130078196D01*
X157592512Y-129336427D01*
X157727597Y-129138724D01*
X157753416Y-129019703D01*
X157754928Y-129019703D01*
X157988317Y-128923030D01*
X158246460Y-128664887D01*
X158246460Y-128440381D01*
X157617842Y-127811763D01*
X157603700Y-127825906D01*
X157424095Y-127646301D01*
X157438237Y-127632158D01*
X157797447Y-127632158D01*
X158426065Y-128260776D01*
X158650571Y-128260776D01*
X158908714Y-128002633D01*
X159005387Y-127769244D01*
X159005388Y-127516625D01*
X158908715Y-127283236D01*
X158730086Y-127104608D01*
X158639795Y-127014316D01*
X158415289Y-127014316D01*
X157797447Y-127632158D01*
X157438237Y-127632158D01*
X157424095Y-127618016D01*
X157603700Y-127438411D01*
X157617842Y-127452553D01*
X158235684Y-126834711D01*
X158235684Y-126692500D01*
X161954290Y-126692500D01*
X161954290Y-127289750D01*
X161998568Y-127525067D01*
X162137640Y-127741191D01*
X162148578Y-127748664D01*
X162005299Y-127958360D01*
X161954290Y-128210250D01*
X161954290Y-129289750D01*
X161998568Y-129525067D01*
X162137640Y-129741191D01*
X162349840Y-129886181D01*
X162601730Y-129937190D01*
X163650750Y-129937190D01*
X163886067Y-129892912D01*
X163988484Y-129827009D01*
X163989552Y-129828077D01*
X164222941Y-129924750D01*
X164588010Y-129924750D01*
X164746760Y-129766000D01*
X164746760Y-128877000D01*
X165000760Y-128877000D01*
X165000760Y-129766000D01*
X165159510Y-129924750D01*
X165524579Y-129924750D01*
X165757968Y-129828077D01*
X165783000Y-129803045D01*
X165783000Y-130473000D01*
X167053000Y-130473000D01*
X167053000Y-128606280D01*
X166836930Y-128483780D01*
X166762723Y-128498740D01*
X166281974Y-128760370D01*
X166033270Y-129068104D01*
X166033270Y-129035750D01*
X165874520Y-128877000D01*
X165000760Y-128877000D01*
X164746760Y-128877000D01*
X164726760Y-128877000D01*
X164726760Y-128623000D01*
X164746760Y-128623000D01*
X164746760Y-128603000D01*
X165000760Y-128603000D01*
X165000760Y-128623000D01*
X165874520Y-128623000D01*
X166033270Y-128464250D01*
X166033270Y-128083940D01*
X165936597Y-127850551D01*
X165843733Y-127757687D01*
X165849711Y-127753840D01*
X165994701Y-127541640D01*
X166045710Y-127289750D01*
X166045710Y-126210250D01*
X166001432Y-125974933D01*
X165922770Y-125852688D01*
X166366710Y-125408748D01*
X166645391Y-125594957D01*
X166645391Y-125594957D01*
G37*
X166645391Y-125594957D02*
X167180000Y-125701297D01*
X167554900Y-125626725D01*
X167554900Y-128490197D01*
X167523070Y-128483780D01*
X167307000Y-128606280D01*
X167307000Y-130473000D01*
X167327000Y-130473000D01*
X167327000Y-130727000D01*
X167307000Y-130727000D01*
X167307000Y-130747000D01*
X167053000Y-130747000D01*
X167053000Y-130727000D01*
X165783000Y-130727000D01*
X165783000Y-131489000D01*
X165872374Y-131791800D01*
X158560058Y-131791800D01*
X156848164Y-130079906D01*
X156850743Y-130078196D01*
X157592512Y-129336427D01*
X157727597Y-129138724D01*
X157753416Y-129019703D01*
X157754928Y-129019703D01*
X157988317Y-128923030D01*
X158246460Y-128664887D01*
X158246460Y-128440381D01*
X157617842Y-127811763D01*
X157603700Y-127825906D01*
X157424095Y-127646301D01*
X157438237Y-127632158D01*
X157797447Y-127632158D01*
X158426065Y-128260776D01*
X158650571Y-128260776D01*
X158908714Y-128002633D01*
X159005387Y-127769244D01*
X159005388Y-127516625D01*
X158908715Y-127283236D01*
X158730086Y-127104608D01*
X158639795Y-127014316D01*
X158415289Y-127014316D01*
X157797447Y-127632158D01*
X157438237Y-127632158D01*
X157424095Y-127618016D01*
X157603700Y-127438411D01*
X157617842Y-127452553D01*
X158235684Y-126834711D01*
X158235684Y-126692500D01*
X161954290Y-126692500D01*
X161954290Y-127289750D01*
X161998568Y-127525067D01*
X162137640Y-127741191D01*
X162148578Y-127748664D01*
X162005299Y-127958360D01*
X161954290Y-128210250D01*
X161954290Y-129289750D01*
X161998568Y-129525067D01*
X162137640Y-129741191D01*
X162349840Y-129886181D01*
X162601730Y-129937190D01*
X163650750Y-129937190D01*
X163886067Y-129892912D01*
X163988484Y-129827009D01*
X163989552Y-129828077D01*
X164222941Y-129924750D01*
X164588010Y-129924750D01*
X164746760Y-129766000D01*
X164746760Y-128877000D01*
X165000760Y-128877000D01*
X165000760Y-129766000D01*
X165159510Y-129924750D01*
X165524579Y-129924750D01*
X165757968Y-129828077D01*
X165783000Y-129803045D01*
X165783000Y-130473000D01*
X167053000Y-130473000D01*
X167053000Y-128606280D01*
X166836930Y-128483780D01*
X166762723Y-128498740D01*
X166281974Y-128760370D01*
X166033270Y-129068104D01*
X166033270Y-129035750D01*
X165874520Y-128877000D01*
X165000760Y-128877000D01*
X164746760Y-128877000D01*
X164726760Y-128877000D01*
X164726760Y-128623000D01*
X164746760Y-128623000D01*
X164746760Y-128603000D01*
X165000760Y-128603000D01*
X165000760Y-128623000D01*
X165874520Y-128623000D01*
X166033270Y-128464250D01*
X166033270Y-128083940D01*
X165936597Y-127850551D01*
X165843733Y-127757687D01*
X165849711Y-127753840D01*
X165994701Y-127541640D01*
X166045710Y-127289750D01*
X166045710Y-126210250D01*
X166001432Y-125974933D01*
X165922770Y-125852688D01*
X166366710Y-125408748D01*
X166645391Y-125594957D01*
G36*
X144443748Y-130985858D02*
X144429605Y-131000000D01*
X144443748Y-131014143D01*
X144264143Y-131193748D01*
X144250000Y-131179605D01*
X144235858Y-131193748D01*
X144056253Y-131014143D01*
X144070395Y-131000000D01*
X144056253Y-130985858D01*
X144235858Y-130806253D01*
X144250000Y-130820395D01*
X144264143Y-130806253D01*
X144443748Y-130985858D01*
X144443748Y-130985858D01*
G37*
X144443748Y-130985858D02*
X144429605Y-131000000D01*
X144443748Y-131014143D01*
X144264143Y-131193748D01*
X144250000Y-131179605D01*
X144235858Y-131193748D01*
X144056253Y-131014143D01*
X144070395Y-131000000D01*
X144056253Y-130985858D01*
X144235858Y-130806253D01*
X144250000Y-130820395D01*
X144264143Y-130806253D01*
X144443748Y-130985858D01*
G36*
X152601154Y-127972519D02*
X152618035Y-127979529D01*
X152527205Y-128039767D01*
X152350428Y-128216544D01*
X152276037Y-128325419D01*
X152173651Y-128393321D01*
X151996874Y-128570098D01*
X151922483Y-128678972D01*
X151820098Y-128746874D01*
X151643321Y-128923651D01*
X151568930Y-129032526D01*
X151466544Y-129100428D01*
X151289767Y-129277205D01*
X151215376Y-129386079D01*
X151112991Y-129453981D01*
X150936214Y-129630758D01*
X150861823Y-129739632D01*
X150759438Y-129807534D01*
X150582661Y-129984311D01*
X150508270Y-130093186D01*
X150405884Y-130161088D01*
X150229107Y-130337865D01*
X150154716Y-130446739D01*
X150052331Y-130514641D01*
X149875554Y-130691418D01*
X149748128Y-130877912D01*
X149709770Y-130820073D01*
X149836819Y-130693246D01*
X149994720Y-130312977D01*
X149995079Y-129901229D01*
X149837842Y-129520685D01*
X149722658Y-129405300D01*
X151247358Y-127880600D01*
X152509395Y-127880600D01*
X152601154Y-127972519D01*
X152601154Y-127972519D01*
G37*
X152601154Y-127972519D02*
X152618035Y-127979529D01*
X152527205Y-128039767D01*
X152350428Y-128216544D01*
X152276037Y-128325419D01*
X152173651Y-128393321D01*
X151996874Y-128570098D01*
X151922483Y-128678972D01*
X151820098Y-128746874D01*
X151643321Y-128923651D01*
X151568930Y-129032526D01*
X151466544Y-129100428D01*
X151289767Y-129277205D01*
X151215376Y-129386079D01*
X151112991Y-129453981D01*
X150936214Y-129630758D01*
X150861823Y-129739632D01*
X150759438Y-129807534D01*
X150582661Y-129984311D01*
X150508270Y-130093186D01*
X150405884Y-130161088D01*
X150229107Y-130337865D01*
X150154716Y-130446739D01*
X150052331Y-130514641D01*
X149875554Y-130691418D01*
X149748128Y-130877912D01*
X149709770Y-130820073D01*
X149836819Y-130693246D01*
X149994720Y-130312977D01*
X149995079Y-129901229D01*
X149837842Y-129520685D01*
X149722658Y-129405300D01*
X151247358Y-127880600D01*
X152509395Y-127880600D01*
X152601154Y-127972519D01*
G36*
X141657488Y-123663573D02*
X141522403Y-123861276D01*
X141496584Y-123980297D01*
X141495072Y-123980297D01*
X141261683Y-124076970D01*
X141003540Y-124335113D01*
X141003540Y-124559619D01*
X141632158Y-125188237D01*
X141646301Y-125174095D01*
X141776774Y-125304568D01*
X137728939Y-129352403D01*
X137751297Y-129240000D01*
X137644957Y-128705391D01*
X137342125Y-128252172D01*
X136919826Y-127970000D01*
X137342125Y-127687828D01*
X137644957Y-127234609D01*
X137751297Y-126700000D01*
X137644957Y-126165391D01*
X137342125Y-125712172D01*
X136999708Y-125483375D01*
X140244612Y-125483375D01*
X140341285Y-125716764D01*
X140519914Y-125895392D01*
X140610205Y-125985684D01*
X140834711Y-125985684D01*
X141452553Y-125367842D01*
X140823935Y-124739224D01*
X140599429Y-124739224D01*
X140341286Y-124997367D01*
X140244613Y-125230756D01*
X140244612Y-125483375D01*
X136999708Y-125483375D01*
X136904338Y-125419651D01*
X136963941Y-125402059D01*
X137389630Y-125058026D01*
X137651260Y-124577277D01*
X137666220Y-124503070D01*
X137543720Y-124287000D01*
X135677000Y-124287000D01*
X135677000Y-124307000D01*
X135423000Y-124307000D01*
X135423000Y-124287000D01*
X135403000Y-124287000D01*
X135403000Y-124033000D01*
X135423000Y-124033000D01*
X135423000Y-124013000D01*
X135677000Y-124013000D01*
X135677000Y-124033000D01*
X137543720Y-124033000D01*
X137666220Y-123816930D01*
X137651260Y-123742723D01*
X137460555Y-123392300D01*
X141928761Y-123392300D01*
X141657488Y-123663573D01*
X141657488Y-123663573D01*
G37*
X141657488Y-123663573D02*
X141522403Y-123861276D01*
X141496584Y-123980297D01*
X141495072Y-123980297D01*
X141261683Y-124076970D01*
X141003540Y-124335113D01*
X141003540Y-124559619D01*
X141632158Y-125188237D01*
X141646301Y-125174095D01*
X141776774Y-125304568D01*
X137728939Y-129352403D01*
X137751297Y-129240000D01*
X137644957Y-128705391D01*
X137342125Y-128252172D01*
X136919826Y-127970000D01*
X137342125Y-127687828D01*
X137644957Y-127234609D01*
X137751297Y-126700000D01*
X137644957Y-126165391D01*
X137342125Y-125712172D01*
X136999708Y-125483375D01*
X140244612Y-125483375D01*
X140341285Y-125716764D01*
X140519914Y-125895392D01*
X140610205Y-125985684D01*
X140834711Y-125985684D01*
X141452553Y-125367842D01*
X140823935Y-124739224D01*
X140599429Y-124739224D01*
X140341286Y-124997367D01*
X140244613Y-125230756D01*
X140244612Y-125483375D01*
X136999708Y-125483375D01*
X136904338Y-125419651D01*
X136963941Y-125402059D01*
X137389630Y-125058026D01*
X137651260Y-124577277D01*
X137666220Y-124503070D01*
X137543720Y-124287000D01*
X135677000Y-124287000D01*
X135677000Y-124307000D01*
X135423000Y-124307000D01*
X135423000Y-124287000D01*
X135403000Y-124287000D01*
X135403000Y-124033000D01*
X135423000Y-124033000D01*
X135423000Y-124013000D01*
X135677000Y-124013000D01*
X135677000Y-124033000D01*
X137543720Y-124033000D01*
X137666220Y-123816930D01*
X137651260Y-123742723D01*
X137460555Y-123392300D01*
X141928761Y-123392300D01*
X141657488Y-123663573D01*
G36*
X149025173Y-127882469D02*
X148932546Y-127789681D01*
X148552277Y-127631780D01*
X148248600Y-127631515D01*
X148248600Y-127616200D01*
X148248014Y-127613255D01*
X148188845Y-127315793D01*
X148018679Y-127061121D01*
X147610258Y-126652700D01*
X150254942Y-126652700D01*
X149025173Y-127882469D01*
X149025173Y-127882469D01*
G37*
X149025173Y-127882469D02*
X148932546Y-127789681D01*
X148552277Y-127631780D01*
X148248600Y-127631515D01*
X148248600Y-127616200D01*
X148248014Y-127613255D01*
X148188845Y-127315793D01*
X148018679Y-127061121D01*
X147610258Y-126652700D01*
X150254942Y-126652700D01*
X149025173Y-127882469D01*
G36*
X155264700Y-127015542D02*
X154716685Y-126467527D01*
X154857036Y-126374446D01*
X155272008Y-125959474D01*
X155325579Y-125923679D01*
X155769258Y-125480000D01*
X156800243Y-125480000D01*
X155264700Y-127015542D01*
X155264700Y-127015542D01*
G37*
X155264700Y-127015542D02*
X154716685Y-126467527D01*
X154857036Y-126374446D01*
X155272008Y-125959474D01*
X155325579Y-125923679D01*
X155769258Y-125480000D01*
X156800243Y-125480000D01*
X155264700Y-127015542D01*
G36*
X124677000Y-126173000D02*
X124697000Y-126173000D01*
X124697000Y-126427000D01*
X124677000Y-126427000D01*
X124677000Y-126447000D01*
X124423000Y-126447000D01*
X124423000Y-126427000D01*
X124403000Y-126427000D01*
X124403000Y-126173000D01*
X124423000Y-126173000D01*
X124423000Y-126153000D01*
X124677000Y-126153000D01*
X124677000Y-126173000D01*
X124677000Y-126173000D01*
G37*
X124677000Y-126173000D02*
X124697000Y-126173000D01*
X124697000Y-126427000D01*
X124677000Y-126427000D01*
X124677000Y-126447000D01*
X124423000Y-126447000D01*
X124423000Y-126427000D01*
X124403000Y-126427000D01*
X124403000Y-126173000D01*
X124423000Y-126173000D01*
X124423000Y-126153000D01*
X124677000Y-126153000D01*
X124677000Y-126173000D01*
G36*
X170461972Y-116408125D02*
X170664895Y-116543714D01*
X170664984Y-118341558D01*
X167784821Y-121221721D01*
X167668463Y-121395864D01*
X167180000Y-121298703D01*
X166645391Y-121405043D01*
X166192172Y-121707875D01*
X165889340Y-122161094D01*
X165783000Y-122695703D01*
X165783000Y-123774616D01*
X165614286Y-123940886D01*
X165612648Y-123943300D01*
X165610221Y-123944921D01*
X164432642Y-125122500D01*
X162537658Y-125122500D01*
X168208458Y-119451700D01*
X168910000Y-119451700D01*
X168910019Y-119451696D01*
X168910039Y-119451700D01*
X169059456Y-119421971D01*
X169210406Y-119391945D01*
X169210423Y-119391934D01*
X169210442Y-119391930D01*
X169338445Y-119306392D01*
X169465079Y-119221779D01*
X169465090Y-119221763D01*
X169465106Y-119221752D01*
X169549734Y-119095083D01*
X169635245Y-118967106D01*
X169635249Y-118967087D01*
X169635260Y-118967070D01*
X169665286Y-118816081D01*
X169695000Y-118666700D01*
X169694996Y-118666681D01*
X169695000Y-118666661D01*
X169694895Y-116543587D01*
X169897628Y-116408125D01*
X170179800Y-115985826D01*
X170461972Y-116408125D01*
X170461972Y-116408125D01*
G37*
X170461972Y-116408125D02*
X170664895Y-116543714D01*
X170664984Y-118341558D01*
X167784821Y-121221721D01*
X167668463Y-121395864D01*
X167180000Y-121298703D01*
X166645391Y-121405043D01*
X166192172Y-121707875D01*
X165889340Y-122161094D01*
X165783000Y-122695703D01*
X165783000Y-123774616D01*
X165614286Y-123940886D01*
X165612648Y-123943300D01*
X165610221Y-123944921D01*
X164432642Y-125122500D01*
X162537658Y-125122500D01*
X168208458Y-119451700D01*
X168910000Y-119451700D01*
X168910019Y-119451696D01*
X168910039Y-119451700D01*
X169059456Y-119421971D01*
X169210406Y-119391945D01*
X169210423Y-119391934D01*
X169210442Y-119391930D01*
X169338445Y-119306392D01*
X169465079Y-119221779D01*
X169465090Y-119221763D01*
X169465106Y-119221752D01*
X169549734Y-119095083D01*
X169635245Y-118967106D01*
X169635249Y-118967087D01*
X169635260Y-118967070D01*
X169665286Y-118816081D01*
X169695000Y-118666700D01*
X169694996Y-118666681D01*
X169695000Y-118666661D01*
X169694895Y-116543587D01*
X169897628Y-116408125D01*
X170179800Y-115985826D01*
X170461972Y-116408125D01*
G36*
X165381972Y-116408125D02*
X165584895Y-116543714D01*
X165584984Y-118341558D01*
X161154042Y-122772500D01*
X157107958Y-122772500D01*
X158724358Y-121156100D01*
X162148900Y-121156100D01*
X162449307Y-121096345D01*
X162703979Y-120926179D01*
X164408379Y-119221779D01*
X164578545Y-118967106D01*
X164638301Y-118666700D01*
X164614994Y-118549532D01*
X164614895Y-116543587D01*
X164817628Y-116408125D01*
X165099800Y-115985826D01*
X165381972Y-116408125D01*
X165381972Y-116408125D01*
G37*
X165381972Y-116408125D02*
X165584895Y-116543714D01*
X165584984Y-118341558D01*
X161154042Y-122772500D01*
X157107958Y-122772500D01*
X158724358Y-121156100D01*
X162148900Y-121156100D01*
X162449307Y-121096345D01*
X162703979Y-120926179D01*
X164408379Y-119221779D01*
X164578545Y-118967106D01*
X164638301Y-118666700D01*
X164614994Y-118549532D01*
X164614895Y-116543587D01*
X164817628Y-116408125D01*
X165099800Y-115985826D01*
X165381972Y-116408125D01*
G36*
X150141972Y-116408125D02*
X150344895Y-116543714D01*
X150345000Y-118666739D01*
X150371434Y-118799594D01*
X150404755Y-118967106D01*
X150404766Y-118967123D01*
X150404770Y-118967142D01*
X150490308Y-119095145D01*
X150574921Y-119221779D01*
X150574937Y-119221790D01*
X150574948Y-119221806D01*
X150701617Y-119306434D01*
X150829594Y-119391945D01*
X150829613Y-119391949D01*
X150829630Y-119391960D01*
X150980619Y-119421986D01*
X151130000Y-119451700D01*
X151660479Y-119451700D01*
X151536719Y-119632828D01*
X151514199Y-119736643D01*
X150326622Y-120924220D01*
X150326321Y-120924421D01*
X149871503Y-121379239D01*
X149645198Y-121424254D01*
X149624446Y-121392964D01*
X149209473Y-120977991D01*
X149173679Y-120924421D01*
X146360879Y-118111621D01*
X146106207Y-117941455D01*
X145805800Y-117881700D01*
X144294961Y-117881700D01*
X144294895Y-116543587D01*
X144497628Y-116408125D01*
X144779800Y-115985826D01*
X145061972Y-116408125D01*
X145515191Y-116710957D01*
X146049800Y-116817297D01*
X146584409Y-116710957D01*
X147037628Y-116408125D01*
X147319800Y-115985826D01*
X147601972Y-116408125D01*
X148055191Y-116710957D01*
X148589800Y-116817297D01*
X149124409Y-116710957D01*
X149577628Y-116408125D01*
X149859800Y-115985826D01*
X150141972Y-116408125D01*
X150141972Y-116408125D01*
G37*
X150141972Y-116408125D02*
X150344895Y-116543714D01*
X150345000Y-118666739D01*
X150371434Y-118799594D01*
X150404755Y-118967106D01*
X150404766Y-118967123D01*
X150404770Y-118967142D01*
X150490308Y-119095145D01*
X150574921Y-119221779D01*
X150574937Y-119221790D01*
X150574948Y-119221806D01*
X150701617Y-119306434D01*
X150829594Y-119391945D01*
X150829613Y-119391949D01*
X150829630Y-119391960D01*
X150980619Y-119421986D01*
X151130000Y-119451700D01*
X151660479Y-119451700D01*
X151536719Y-119632828D01*
X151514199Y-119736643D01*
X150326622Y-120924220D01*
X150326321Y-120924421D01*
X149871503Y-121379239D01*
X149645198Y-121424254D01*
X149624446Y-121392964D01*
X149209473Y-120977991D01*
X149173679Y-120924421D01*
X146360879Y-118111621D01*
X146106207Y-117941455D01*
X145805800Y-117881700D01*
X144294961Y-117881700D01*
X144294895Y-116543587D01*
X144497628Y-116408125D01*
X144779800Y-115985826D01*
X145061972Y-116408125D01*
X145515191Y-116710957D01*
X146049800Y-116817297D01*
X146584409Y-116710957D01*
X147037628Y-116408125D01*
X147319800Y-115985826D01*
X147601972Y-116408125D01*
X148055191Y-116710957D01*
X148589800Y-116817297D01*
X149124409Y-116710957D01*
X149577628Y-116408125D01*
X149859800Y-115985826D01*
X150141972Y-116408125D01*
G36*
X155221972Y-116408125D02*
X155424867Y-116543695D01*
X155424989Y-120068453D01*
X155004218Y-120489224D01*
X154926065Y-120489224D01*
X154297447Y-121117842D01*
X154311590Y-121131985D01*
X154131985Y-121311590D01*
X154117842Y-121297447D01*
X154103700Y-121311590D01*
X153951134Y-121159024D01*
X154532279Y-120577879D01*
X154641174Y-120414905D01*
X154746460Y-120309619D01*
X154746460Y-120101930D01*
X154762200Y-120022800D01*
X154762200Y-119621100D01*
X154702445Y-119320694D01*
X154532279Y-119066021D01*
X153577879Y-118111621D01*
X153323207Y-117941455D01*
X153022800Y-117881700D01*
X151914961Y-117881700D01*
X151914895Y-116543587D01*
X152117628Y-116408125D01*
X152399800Y-115985826D01*
X152681972Y-116408125D01*
X153135191Y-116710957D01*
X153669800Y-116817297D01*
X154204409Y-116710957D01*
X154657628Y-116408125D01*
X154939800Y-115985826D01*
X155221972Y-116408125D01*
X155221972Y-116408125D01*
G37*
X155221972Y-116408125D02*
X155424867Y-116543695D01*
X155424989Y-120068453D01*
X155004218Y-120489224D01*
X154926065Y-120489224D01*
X154297447Y-121117842D01*
X154311590Y-121131985D01*
X154131985Y-121311590D01*
X154117842Y-121297447D01*
X154103700Y-121311590D01*
X153951134Y-121159024D01*
X154532279Y-120577879D01*
X154641174Y-120414905D01*
X154746460Y-120309619D01*
X154746460Y-120101930D01*
X154762200Y-120022800D01*
X154762200Y-119621100D01*
X154702445Y-119320694D01*
X154532279Y-119066021D01*
X153577879Y-118111621D01*
X153323207Y-117941455D01*
X153022800Y-117881700D01*
X151914961Y-117881700D01*
X151914895Y-116543587D01*
X152117628Y-116408125D01*
X152399800Y-115985826D01*
X152681972Y-116408125D01*
X153135191Y-116710957D01*
X153669800Y-116817297D01*
X154204409Y-116710957D01*
X154657628Y-116408125D01*
X154939800Y-115985826D01*
X155221972Y-116408125D01*
G36*
X125007744Y-119477931D02*
X125079082Y-119562858D01*
X125140701Y-119655079D01*
X125176814Y-119679209D01*
X125204746Y-119712462D01*
X125303152Y-119763624D01*
X125395374Y-119825245D01*
X125437969Y-119833718D01*
X125456429Y-119843315D01*
X125354297Y-119823000D01*
X123745703Y-119823000D01*
X123211094Y-119929340D01*
X122960000Y-120097116D01*
X122960000Y-116771587D01*
X123189800Y-116817297D01*
X123511170Y-116753373D01*
X125007744Y-119477931D01*
X125007744Y-119477931D01*
G37*
X125007744Y-119477931D02*
X125079082Y-119562858D01*
X125140701Y-119655079D01*
X125176814Y-119679209D01*
X125204746Y-119712462D01*
X125303152Y-119763624D01*
X125395374Y-119825245D01*
X125437969Y-119833718D01*
X125456429Y-119843315D01*
X125354297Y-119823000D01*
X123745703Y-119823000D01*
X123211094Y-119929340D01*
X122960000Y-120097116D01*
X122960000Y-116771587D01*
X123189800Y-116817297D01*
X123511170Y-116753373D01*
X125007744Y-119477931D01*
G36*
X139981972Y-116408125D02*
X140184895Y-116543714D01*
X140185000Y-118666739D01*
X140211434Y-118799594D01*
X140236180Y-118924000D01*
X139797458Y-118924000D01*
X139214984Y-118341526D01*
X139214895Y-116543587D01*
X139417628Y-116408125D01*
X139699800Y-115985826D01*
X139981972Y-116408125D01*
X139981972Y-116408125D01*
G37*
X139981972Y-116408125D02*
X140184895Y-116543714D01*
X140185000Y-118666739D01*
X140211434Y-118799594D01*
X140236180Y-118924000D01*
X139797458Y-118924000D01*
X139214984Y-118341526D01*
X139214895Y-116543587D01*
X139417628Y-116408125D01*
X139699800Y-115985826D01*
X139981972Y-116408125D01*
G36*
X142521972Y-116408125D02*
X142724895Y-116543714D01*
X142724986Y-118384400D01*
X141797858Y-118384400D01*
X141754984Y-118341526D01*
X141754895Y-116543587D01*
X141957628Y-116408125D01*
X142239800Y-115985826D01*
X142521972Y-116408125D01*
X142521972Y-116408125D01*
G37*
X142521972Y-116408125D02*
X142724895Y-116543714D01*
X142724986Y-118384400D01*
X141797858Y-118384400D01*
X141754984Y-118341526D01*
X141754895Y-116543587D01*
X141957628Y-116408125D01*
X142239800Y-115985826D01*
X142521972Y-116408125D01*
M02*
